{"glyphs":{"0":{"ha":1076,"x_min":113,"x_max":1218,"o":"m 1208 649 l 1099 257 q 1049 167 1086 213 q 963 84 1011 121 q 863 24 915 47 q 771 0 811 0 l 306 0 q 233 20 268 0 q 170 73 197 40 q 128 147 143 106 q 117 229 113 188 q 119 243 118 236 q 122 257 121 250 l 232 649 q 282 739 244 693 q 368 822 319 785 q 469 882 417 858 q 561 906 521 906 l 1026 906 q 1098 885 1063 906 q 1160 833 1133 865 q 1203 759 1188 800 q 1214 676 1218 718 q 1211 661 1213 668 q 1208 649 1210 654 m 493 403 q 485 354 488 378 q 496 295 481 318 q 563 272 511 272 l 669 272 q 726 283 703 272 q 766 311 750 293 q 792 353 782 329 q 808 403 801 376 l 842 518 q 844 526 843 521 q 847 536 846 531 l 849 554 q 836 612 853 590 q 769 633 819 633 l 663 633 q 570 600 600 633 q 526 518 540 567 l 493 403 z "},"1":{"ha":529,"x_min":150,"x_max":735,"o":"m 306 906 l 735 906 l 479 0 l 150 0 l 328 633 l 228 633 l 306 906 z "},"2":{"ha":1044,"x_min":189,"x_max":1072,"o":"m 994 0 l 331 0 q 224 40 258 0 q 196 147 189 81 l 199 165 q 203 185 199 174 q 265 308 222 251 q 364 418 307 365 q 488 524 421 471 q 621 633 554 576 l 228 633 l 306 906 l 899 906 q 963 893 933 906 q 1013 858 993 881 q 1043 804 1033 835 q 1049 736 1053 774 q 1040 697 1047 718 q 1033 676 1036 686 q 1024 656 1031 667 q 947 551 994 601 q 844 452 900 500 q 731 359 789 404 q 622 272 672 314 l 1072 272 l 994 0 z "},"3":{"ha":936,"x_min":50,"x_max":1076,"o":"m 1061 614 q 1016 528 1049 569 q 949 461 983 486 q 973 400 964 435 q 978 326 982 365 q 975 309 976 318 q 971 292 974 300 l 967 272 q 915 176 953 224 q 828 88 878 128 q 722 24 778 49 q 614 0 665 0 l 50 0 l 128 272 l 563 272 q 616 280 601 272 q 636 303 631 288 q 637 305 636 303 q 639 313 638 307 q 627 331 640 326 q 578 335 614 335 l 179 335 l 246 571 l 644 571 q 700 578 685 571 q 719 600 715 585 l 722 608 q 710 628 725 624 q 663 633 694 633 l 228 633 l 306 906 l 869 906 q 956 885 917 906 q 1023 831 996 864 q 1063 754 1050 797 q 1072 667 1076 711 q 1067 633 1072 646 l 1061 614 z "},"4":{"ha":1054,"x_min":143,"x_max":1260,"o":"m 675 0 l 1004 0 l 1260 906 l 931 906 l 838 578 l 542 578 l 635 906 l 306 906 l 143 333 l 768 333 l 675 0 z "},"5":{"ha":1044,"x_min":50,"x_max":1250,"o":"m 50 0 l 714 0 q 862 53 801 0 q 946 185 922 106 q 951 211 949 199 q 956 236 954 224 q 946 342 961 292 q 903 440 931 392 q 843 535 876 488 q 779 633 810 582 l 1172 633 l 1250 906 l 457 906 l 399 697 q 390 667 392 681 l 390 656 q 408 550 389 601 q 455 451 426 499 q 517 358 483 403 q 578 272 550 314 l 128 272 l 50 0 z "},"6":{"ha":1071,"x_min":143,"x_max":1276,"o":"m 1200 635 l 781 635 q 642 612 697 635 q 553 544 588 589 l 985 544 q 1051 527 1024 544 q 1096 483 1079 510 q 1119 428 1113 457 q 1124 374 1126 399 q 1122 360 1122 364 q 1121 356 1121 356 l 1079 208 q 1040 126 1067 164 q 977 60 1013 88 q 901 16 942 32 q 821 0 860 0 l 578 0 q 386 19 469 0 q 247 78 303 38 q 167 183 192 118 q 153 339 143 247 q 174 450 157 390 l 175 454 q 269 664 208 578 q 415 803 331 750 q 606 881 500 857 q 833 906 711 906 l 1276 906 l 1200 635 m 508 338 q 548 294 521 311 q 626 272 575 276 l 771 272 l 778 300 l 778 304 q 771 326 779 314 q 756 338 763 338 l 508 338 z "},"7":{"ha":893,"x_min":151,"x_max":1099,"o":"m 479 0 l 151 0 l 203 185 q 263 308 221 251 q 363 418 306 365 q 487 524 419 471 q 621 633 554 576 l 228 633 l 306 906 l 1099 906 l 1040 697 q 1033 676 1036 686 q 1024 656 1031 667 q 949 554 993 601 q 851 463 904 507 q 741 376 799 418 q 628 290 683 333 q 581 239 603 271 q 541 168 560 207 q 507 85 522 129 q 479 0 492 42 z "},"8":{"ha":1082,"x_min":114,"x_max":1222,"o":"m 1207 614 q 1162 528 1194 569 q 1094 461 1129 486 q 1119 400 1110 435 q 1124 326 1128 365 q 1121 309 1122 318 q 1117 292 1119 300 l 1113 272 q 1061 176 1099 224 q 974 88 1024 128 q 867 24 924 49 q 760 0 811 0 l 322 0 q 235 21 274 0 q 168 75 196 42 q 127 151 140 108 q 118 239 114 194 q 121 256 119 247 q 125 272 122 264 l 129 292 q 177 385 143 340 q 249 461 211 429 q 221 515 231 482 q 214 585 211 549 q 217 599 215 592 q 221 615 218 606 l 225 635 q 276 731 239 682 q 364 818 314 779 q 470 881 414 857 q 578 906 526 906 l 1015 906 q 1102 885 1063 906 q 1169 831 1142 864 q 1209 754 1196 797 q 1218 667 1222 711 q 1213 633 1218 646 l 1207 614 m 469 303 l 468 297 q 481 278 467 285 q 529 272 494 272 l 708 272 q 762 280 747 272 q 782 303 776 288 q 783 305 782 303 q 785 313 783 307 q 773 331 786 326 q 724 335 760 335 l 544 335 q 490 328 504 335 q 469 303 476 322 m 553 600 l 551 593 q 563 576 550 582 q 611 571 575 571 l 790 571 q 846 578 831 571 q 865 600 861 585 l 868 608 q 856 628 871 624 q 808 633 840 633 l 629 633 q 576 626 593 633 q 553 600 560 619 z "},"9":{"ha":1056,"x_min":183,"x_max":1261,"o":"m 676 0 l 1006 0 l 1261 906 l 578 906 q 468 881 525 906 q 361 816 411 856 q 274 727 311 776 q 225 631 238 678 l 193 521 q 190 506 192 514 q 188 490 189 499 q 198 402 183 446 q 240 324 213 358 q 307 267 268 289 q 390 244 346 244 l 744 244 l 676 0 m 821 513 l 615 513 q 556 524 571 513 q 543 557 540 535 q 546 572 544 571 q 574 617 554 600 q 649 633 594 633 l 854 633 l 821 513 z "}," ":{"ha":489,"x_min":0,"x_max":0,"o":""}," ":{"ha":489,"x_min":0,"x_max":0,"o":""},"!":{"ha":429,"x_min":50,"x_max":635,"o":"m 635 906 l 472 333 l 143 333 l 306 906 l 635 906 m 50 0 l 128 272 l 457 272 l 379 0 l 50 0 z "},"\"":{"ha":824,"x_min":178,"x_max":1029,"o":"m 572 454 l 700 906 l 1029 906 l 958 654 q 807 548 888 596 q 633 454 726 500 l 572 454 m 178 454 l 306 906 l 635 906 l 564 654 q 413 548 493 596 q 239 454 332 500 l 178 454 z "},"#":{"ha":1090,"x_min":101,"x_max":1244,"o":"m 1092 185 l 983 185 l 932 0 l 603 0 l 654 185 l 539 185 l 488 0 l 158 0 l 210 185 l 101 185 l 169 424 l 278 424 l 293 482 l 185 482 l 254 721 l 363 721 l 414 906 l 743 906 l 692 721 l 807 721 l 858 906 l 1188 906 l 1136 721 l 1244 721 l 1175 482 l 1067 482 l 1051 424 l 1160 424 l 1092 185 m 738 482 l 622 482 l 607 424 l 722 424 l 738 482 z "},"$":{"ha":792,"x_min":50,"x_max":996,"o":"m 529 -108 l 200 -108 l 231 0 l 50 0 l 128 272 l 426 272 q 365 358 399 314 q 303 451 332 403 q 256 550 275 499 q 239 656 238 601 l 239 667 q 247 697 240 681 q 282 775 258 739 q 338 838 306 811 q 407 883 369 865 q 485 904 444 900 l 517 1015 l 846 1015 l 815 906 l 996 906 l 918 633 l 628 633 q 692 535 658 582 q 752 440 725 488 q 794 343 779 393 q 804 238 810 293 q 801 213 803 226 q 793 185 799 200 q 759 111 782 144 q 706 53 736 78 q 638 14 675 28 q 563 0 601 0 l 560 0 l 529 -108 z "},"%":{"ha":1488,"x_min":217,"x_max":1526,"o":"m 1015 906 l 1306 906 l 726 0 l 438 0 l 1015 906 m 1251 297 q 1190 281 1207 297 q 1163 232 1174 265 l 1161 231 q 1158 218 1160 224 q 1157 207 1157 213 q 1167 176 1154 186 q 1215 165 1179 165 q 1278 181 1260 165 q 1306 231 1297 197 l 1307 232 q 1310 245 1308 239 q 1311 257 1311 251 q 1301 288 1314 278 q 1251 297 1288 297 m 1169 0 q 1002 41 1061 0 q 953 175 943 82 q 958 206 956 193 q 964 229 960 219 l 964 231 q 1086 406 1000 353 q 1299 458 1172 458 q 1467 418 1408 458 q 1517 286 1526 378 q 1512 258 1514 272 q 1504 231 1510 244 l 1504 229 q 1382 53 1469 106 q 1169 0 1294 0 m 525 744 q 463 728 481 744 q 435 679 446 713 l 435 678 q 432 665 433 671 q 429 653 431 658 q 439 622 426 632 q 488 613 451 613 q 550 628 532 613 q 579 678 568 644 l 579 679 q 585 704 585 690 q 574 735 588 725 q 525 744 561 744 m 443 447 q 276 488 335 447 q 226 622 217 529 q 231 653 229 640 q 238 676 233 667 l 238 678 q 360 853 274 800 q 572 906 446 906 q 741 865 682 906 q 789 733 800 825 q 785 706 788 719 q 778 678 783 692 l 778 676 q 656 500 743 553 q 443 447 568 447 z "},"&":{"ha":936,"x_min":114,"x_max":1142,"o":"m 678 -108 l 349 -108 l 379 0 l 322 0 q 235 21 274 0 q 168 76 196 42 q 127 153 140 110 q 118 240 114 196 l 129 293 q 177 385 143 342 q 249 461 211 429 q 221 515 231 482 q 214 585 211 549 q 217 599 215 592 q 221 615 218 606 l 225 635 q 276 731 239 682 q 364 818 314 779 q 470 881 414 857 q 578 906 526 906 l 635 906 l 665 1015 l 994 1015 l 964 906 l 1142 906 l 1064 633 l 629 633 q 576 626 593 633 q 553 600 560 619 l 551 593 q 563 576 550 582 q 611 571 575 571 l 1010 571 l 943 335 l 544 335 q 490 328 504 335 q 469 303 476 322 l 468 297 q 481 278 467 285 q 529 272 494 272 l 964 272 l 886 0 l 708 0 l 678 -108 z "},"'":{"ha":429,"x_min":178,"x_max":635,"o":"m 178 454 l 306 906 l 635 906 l 564 654 q 413 548 493 596 q 239 454 332 500 l 178 454 z "},"(":{"ha":629,"x_min":113,"x_max":835,"o":"m 579 0 l 657 272 l 563 272 q 496 295 511 272 q 485 354 481 318 q 493 403 488 378 l 522 501 q 569 595 539 557 q 663 633 600 633 l 757 633 l 835 906 l 561 906 q 469 882 521 906 q 368 822 417 858 q 282 739 319 785 q 232 649 244 693 l 122 257 q 119 244 121 250 q 117 231 118 238 q 128 148 113 189 q 170 74 143 107 q 233 20 197 40 q 306 0 268 0 l 579 0 z "},")":{"ha":629,"x_min":50,"x_max":771,"o":"m 50 0 l 128 272 l 222 272 q 279 283 256 272 q 319 311 303 293 q 344 353 335 329 q 361 403 354 376 l 390 501 q 396 528 393 515 q 400 553 399 540 q 388 611 404 589 q 322 633 371 633 l 228 633 l 306 906 l 579 906 q 651 885 615 906 q 713 833 686 865 q 756 759 740 800 q 767 676 771 718 q 764 661 765 668 q 761 649 763 654 l 651 257 q 601 167 639 213 q 516 84 564 121 q 416 24 468 47 q 324 0 364 0 l 50 0 z "},"*":{"ha":407,"x_min":251,"x_max":606,"o":"m 421 635 l 400 706 l 342 635 l 256 721 l 329 779 l 251 801 l 333 926 l 392 886 l 403 972 l 550 972 l 515 886 l 596 922 l 606 797 l 522 779 l 554 719 l 421 635 z "},"+":{"ha":657,"x_min":143,"x_max":769,"o":"m 254 176 l 299 333 l 143 333 l 213 578 l 368 578 l 411 733 l 656 733 l 613 578 l 769 578 l 700 333 l 543 333 l 499 176 l 254 176 z "},",":{"ha":429,"x_min":-1,"x_max":457,"o":"m -1 -179 l 128 272 l 457 272 l 386 21 q 234 -85 315 -37 q 60 -179 153 -133 l -1 -179 z "},"-":{"ha":565,"x_min":143,"x_max":678,"o":"m 608 333 l 678 578 l 213 578 l 143 333 l 608 333 z "},".":{"ha":429,"x_min":50,"x_max":457,"o":"m 50 0 l 128 272 l 457 272 l 379 0 l 50 0 z "},"/":{"ha":657,"x_min":22,"x_max":890,"o":"m 553 906 l 890 906 l 358 0 l 22 0 l 553 906 z "},":":{"ha":429,"x_min":50,"x_max":575,"o":"m 50 0 l 128 272 l 457 272 l 379 0 l 50 0 m 169 422 l 246 694 l 575 694 l 499 422 l 169 422 z "},";":{"ha":429,"x_min":-1,"x_max":575,"o":"m 169 422 l 246 694 l 575 694 l 499 422 l 169 422 m -1 -179 l 128 272 l 457 272 l 386 21 q 234 -85 315 -37 q 60 -179 153 -133 l -1 -179 z "},"<":{"ha":722,"x_min":151,"x_max":953,"o":"m 572 906 l 151 451 l 317 0 l 696 0 l 503 451 l 953 906 l 572 906 z "},"=":{"ha":618,"x_min":101,"x_max":772,"o":"m 619 185 l 688 424 l 169 424 l 101 185 l 619 185 m 703 482 l 772 721 l 254 721 l 185 482 l 703 482 z "},">":{"ha":722,"x_min":26,"x_max":824,"o":"m 824 451 l 661 906 l 281 906 l 472 451 l 26 0 l 406 0 l 824 451 z "},"?":{"ha":788,"x_min":89,"x_max":950,"o":"m 594 335 l 181 335 q 252 410 213 374 q 335 483 292 447 q 426 556 379 519 q 518 633 472 593 l 228 633 l 306 906 l 796 906 q 860 893 831 906 q 910 858 890 881 q 940 804 931 835 q 946 736 950 774 q 938 697 944 718 q 931 676 933 686 q 921 656 928 667 q 860 569 896 611 q 781 487 824 526 q 690 409 738 447 q 594 335 642 371 m 167 272 l 496 272 l 418 0 l 89 0 l 167 272 z "},"@":{"ha":1457,"x_min":93,"x_max":1618,"o":"m 1303 -115 l 286 -115 q 213 -96 249 -115 q 151 -44 178 -76 q 108 29 124 -11 q 97 111 93 69 q 100 125 99 118 q 104 139 101 132 l 279 764 q 329 854 292 808 q 415 937 367 900 q 515 997 464 974 q 607 1021 567 1021 l 1425 1021 q 1497 1001 1461 1021 q 1560 948 1532 981 q 1603 874 1588 915 q 1614 792 1618 833 q 1611 776 1613 783 q 1608 764 1610 769 l 1528 478 q 1477 388 1515 433 q 1391 306 1439 343 q 1292 247 1343 269 q 1201 224 1240 224 l 790 224 q 623 265 682 224 q 574 399 564 306 q 578 430 576 417 q 585 453 581 443 l 586 454 q 635 558 603 515 q 710 629 667 601 q 806 669 753 657 q 921 682 860 682 q 1091 642 1033 682 q 1138 508 1149 601 q 1133 482 1136 493 q 1128 463 1131 471 l 1128 458 l 1126 454 l 1125 453 q 1115 419 1119 433 q 1104 393 1111 404 q 1185 439 1161 401 q 1225 526 1210 476 l 1254 631 q 1259 657 1257 644 q 1264 682 1261 669 q 1251 740 1267 718 q 1188 763 1235 763 l 700 763 q 645 752 668 763 q 606 724 622 742 q 578 683 589 707 q 558 631 567 658 l 458 274 q 451 247 453 260 q 447 222 449 233 q 459 165 443 188 q 525 143 475 143 l 1376 143 l 1303 -115 m 872 517 q 813 503 828 517 q 788 456 797 489 l 788 454 q 783 439 785 446 q 781 426 782 432 q 790 401 778 408 q 838 393 803 393 q 899 407 882 393 q 924 454 915 421 l 924 456 q 929 479 929 467 q 920 508 932 499 q 872 517 908 517 z "},"A":{"ha":1142,"x_min":24,"x_max":1118,"o":"m 786 139 l 450 139 l 363 0 l 24 0 l 563 906 l 1090 906 l 1118 0 l 793 0 l 786 139 m 590 381 l 781 381 l 765 667 l 590 381 z "},"B":{"ha":1074,"x_min":50,"x_max":1214,"o":"m 1200 618 l 1204 633 q 1210 667 1210 646 q 1201 754 1214 711 q 1160 831 1188 797 q 1094 885 1133 864 q 1007 906 1054 906 l 306 906 l 50 0 l 751 0 q 859 24 803 0 q 965 88 915 49 q 1053 176 1015 128 q 1104 272 1090 224 l 1108 289 q 1111 301 1110 294 q 1114 317 1113 308 q 1106 396 1118 358 q 1078 461 1094 433 q 1149 530 1113 488 q 1200 618 1186 572 m 558 633 l 800 633 q 847 628 832 633 q 860 608 863 624 l 857 600 q 838 578 853 585 q 782 571 822 571 l 540 571 l 558 633 m 474 335 l 715 335 q 765 331 751 335 q 776 313 778 326 q 774 305 775 307 q 774 303 774 303 q 753 280 768 288 q 700 272 739 272 l 458 272 l 474 335 z "},"C":{"ha":938,"x_min":113,"x_max":1143,"o":"m 888 0 l 306 0 q 233 20 268 0 q 170 73 197 40 q 128 147 143 106 q 117 229 113 188 l 118 243 q 120 253 119 250 q 121 257 121 257 l 232 649 q 282 739 244 693 q 368 822 319 785 q 469 882 417 858 q 561 906 521 906 l 1143 906 l 1065 633 l 663 633 q 608 623 631 633 q 569 595 585 613 q 542 553 553 578 q 522 501 531 529 l 492 394 q 483 353 485 371 q 495 294 479 317 q 563 272 511 272 l 965 272 l 888 0 z "},"D":{"ha":1076,"x_min":50,"x_max":1218,"o":"m 557 633 l 769 633 q 835 611 818 633 q 847 553 851 589 q 843 528 846 540 q 838 501 840 515 l 808 403 q 792 353 801 376 q 766 311 782 329 q 726 283 750 293 q 669 272 703 272 l 457 272 l 557 633 m 50 0 l 771 0 q 863 24 811 0 q 963 84 915 47 q 1049 167 1011 121 q 1099 257 1086 213 l 1208 649 q 1211 660 1210 654 q 1214 675 1213 667 q 1203 758 1218 717 q 1160 832 1188 799 q 1098 885 1133 865 q 1026 906 1063 906 l 306 906 l 50 0 z "},"E":{"ha":939,"x_min":50,"x_max":1144,"o":"m 944 333 l 472 333 l 457 272 l 967 272 l 889 0 l 50 0 l 306 906 l 1144 906 l 1067 633 l 557 633 l 540 572 l 1013 572 l 944 333 z "},"F":{"ha":851,"x_min":50,"x_max":1057,"o":"m 850 307 l 465 307 l 379 0 l 50 0 l 306 906 l 1057 906 l 979 633 l 557 633 l 540 572 l 925 572 l 850 307 z "},"G":{"ha":1065,"x_min":143,"x_max":1271,"o":"m 781 635 l 1194 635 l 1271 906 l 833 906 q 606 881 711 906 q 415 803 500 857 q 269 664 331 750 q 174 456 207 578 l 174 450 q 153 339 157 390 q 167 183 143 247 q 247 78 192 118 q 386 19 303 38 q 578 0 469 0 l 1015 0 l 1156 496 l 826 496 l 764 272 l 626 272 q 519 310 547 279 q 499 397 492 342 q 502 422 500 408 q 510 450 504 435 l 511 454 q 599 589 536 543 q 781 635 663 635 z "},"H":{"ha":1076,"x_min":50,"x_max":1282,"o":"m 697 0 l 1026 0 l 1282 906 l 953 906 l 860 578 l 542 578 l 635 906 l 306 906 l 50 0 l 379 0 l 472 333 l 790 333 l 697 0 z "},"I":{"ha":429,"x_min":50,"x_max":635,"o":"m 379 0 l 635 906 l 306 906 l 50 0 l 379 0 z "},"J":{"ha":793,"x_min":50,"x_max":999,"o":"m 667 906 l 999 906 l 869 450 q 774 241 835 326 q 630 102 714 156 q 440 24 546 49 q 213 0 335 0 l 50 0 l 128 272 l 319 272 q 465 324 415 279 q 538 450 515 369 l 667 906 z "},"K":{"ha":1053,"x_min":50,"x_max":1283,"o":"m 890 906 l 542 578 l 635 906 l 306 906 l 50 0 l 379 0 l 476 347 l 649 0 l 1026 0 l 796 451 l 1283 906 l 890 906 z "},"L":{"ha":788,"x_min":50,"x_max":815,"o":"m 50 0 l 306 906 l 635 906 l 457 272 l 815 272 l 738 0 l 50 0 z "},"M":{"ha":1251,"x_min":50,"x_max":1457,"o":"m 1201 0 l 871 0 l 971 354 l 654 0 l 599 0 l 479 354 l 379 0 l 50 0 l 306 906 l 640 906 l 768 544 l 1096 906 l 1457 906 l 1201 0 z "},"N":{"ha":1076,"x_min":50,"x_max":1282,"o":"m 1026 0 l 707 0 l 496 415 l 379 0 l 50 0 l 306 906 l 626 906 l 835 492 l 953 906 l 1282 906 l 1026 0 z "},"O":{"ha":1179,"x_min":143,"x_max":1290,"o":"m 586 -7 q 392 13 478 -7 q 251 74 307 32 q 169 183 194 117 q 153 343 143 249 q 174 450 157 392 l 174 453 q 272 662 208 575 q 421 803 335 749 q 614 884 507 858 q 844 910 721 910 q 1038 890 953 910 q 1181 829 1124 871 q 1264 722 1238 788 q 1281 564 1290 657 q 1272 510 1278 538 q 1257 453 1265 483 l 1257 450 q 1158 240 1221 326 q 1008 98 1094 153 q 815 18 922 43 q 586 -7 708 -7 m 768 640 q 664 628 707 640 q 591 591 621 615 q 542 532 561 567 q 510 453 522 497 l 510 450 q 499 392 503 431 q 528 297 492 329 q 664 264 564 264 q 838 313 781 264 q 921 450 896 361 l 921 453 q 928 481 926 467 q 932 508 931 494 q 902 606 939 571 q 768 640 865 640 z "},"P":{"ha":1076,"x_min":50,"x_max":1214,"o":"m 379 0 l 50 0 l 306 906 l 1007 906 q 1094 885 1054 906 q 1160 829 1133 864 q 1201 751 1188 794 q 1210 664 1214 708 q 1208 647 1208 656 q 1204 631 1207 639 l 1172 521 q 1122 426 1160 475 q 1032 336 1083 376 q 924 270 981 296 q 819 244 868 244 l 447 244 l 379 0 m 524 513 l 747 513 q 819 528 799 513 q 850 572 839 543 l 853 586 q 842 621 856 608 q 781 633 828 633 l 557 633 l 524 513 z "},"Q":{"ha":1226,"x_min":146,"x_max":1317,"o":"m 588 -7 q 660 -4 624 -7 q 731 1 697 -1 l 740 0 l 1121 0 l 1317 272 l 1188 272 q 1263 450 1236 350 l 1263 453 q 1277 510 1271 483 q 1286 563 1283 538 q 1269 722 1296 656 q 1184 829 1242 788 q 1041 890 1126 871 q 847 910 956 910 q 617 884 724 910 q 424 803 510 858 q 274 662 338 749 q 176 453 211 575 l 176 450 q 156 343 160 392 q 171 183 146 249 q 252 74 196 117 q 393 13 308 32 q 588 -7 478 -7 m 661 446 l 640 446 l 589 271 q 513 313 531 283 q 501 390 496 342 q 505 419 503 404 q 513 450 507 433 l 513 453 q 544 532 525 497 q 594 591 564 567 q 667 628 624 615 q 771 640 710 640 q 908 606 871 640 q 938 507 944 571 q 926 453 936 474 l 926 450 q 905 392 918 418 q 876 347 892 367 l 661 446 z "},"R":{"ha":1194,"x_min":50,"x_max":1222,"o":"m 379 0 l 50 0 l 306 906 l 1010 906 q 1083 886 1049 906 q 1142 835 1117 867 q 1179 765 1167 804 q 1188 683 1192 725 q 1185 667 1186 675 q 1181 650 1183 658 l 1157 569 q 1117 475 1143 521 q 1053 390 1092 429 q 965 321 1015 351 q 853 272 915 290 l 1222 272 l 1144 0 l 613 0 q 546 33 575 4 q 497 101 517 61 q 465 187 476 142 q 454 269 454 232 l 379 0 m 526 524 l 715 524 q 787 536 761 524 q 824 578 813 549 l 824 586 q 746 633 829 633 l 557 633 l 526 524 z "},"S":{"ha":1044,"x_min":50,"x_max":1250,"o":"m 50 0 l 714 0 q 790 14 753 0 q 857 53 826 28 q 910 111 888 78 q 944 185 933 144 q 950 211 947 199 q 954 236 953 224 q 944 342 960 292 q 903 440 929 392 q 843 535 876 488 q 779 633 810 582 l 1172 633 l 1250 906 l 657 906 q 576 890 617 906 q 501 846 536 874 q 438 780 465 818 q 399 697 411 742 q 390 664 392 678 l 390 656 q 408 550 389 601 q 455 451 426 499 q 517 358 483 403 q 578 272 550 314 l 128 272 l 50 0 z "},"T":{"ha":1024,"x_min":228,"x_max":1229,"o":"m 306 906 l 1229 906 l 1151 633 l 854 633 l 676 0 l 347 0 l 525 633 l 228 633 l 306 906 z "},"U":{"ha":1076,"x_min":113,"x_max":1282,"o":"m 493 403 q 485 354 488 378 q 496 295 481 318 q 563 272 511 272 l 669 272 q 726 283 703 272 q 766 311 750 293 q 792 353 782 329 q 808 403 801 376 l 951 906 l 1282 906 l 1099 257 q 1049 167 1086 213 q 963 84 1011 121 q 863 24 915 47 q 771 0 811 0 l 306 0 q 233 20 268 0 q 170 73 197 40 q 128 147 143 106 q 117 229 113 188 q 119 243 118 236 q 122 257 121 250 l 306 906 l 636 906 l 493 403 z "},"V":{"ha":1136,"x_min":278,"x_max":1369,"o":"m 628 239 l 1031 906 l 1369 906 l 831 0 l 306 0 l 278 906 l 603 906 l 628 239 z "},"W":{"ha":1464,"x_min":279,"x_max":1696,"o":"m 1143 563 l 1126 906 l 835 906 l 619 563 l 604 906 l 279 906 l 307 0 l 635 0 l 832 357 l 829 0 l 1157 0 l 1696 906 l 1357 906 l 1143 563 z "},"X":{"ha":1040,"x_min":25,"x_max":1272,"o":"m 885 906 l 719 736 l 653 906 l 279 906 l 471 451 l 25 0 l 411 0 l 574 168 l 643 0 l 1015 0 l 822 451 l 1272 906 l 885 906 z "},"Y":{"ha":1076,"x_min":181,"x_max":1282,"o":"m 561 644 q 556 621 558 633 q 551 594 553 608 q 562 536 547 558 q 628 514 576 514 l 738 514 q 793 524 769 514 q 833 553 817 535 q 861 594 850 571 q 879 644 872 618 l 953 906 l 1282 906 l 1167 499 q 1117 408 1154 453 q 1031 326 1079 363 q 931 267 982 290 q 839 244 879 244 l 771 244 l 703 0 l 374 0 l 442 244 l 374 244 q 301 264 338 244 q 238 316 265 283 q 196 389 211 349 q 185 471 181 429 q 190 499 185 488 l 306 906 l 635 906 l 561 644 z "},"Z":{"ha":1044,"x_min":151,"x_max":1099,"o":"m 994 0 l 151 0 l 203 185 q 263 308 221 251 q 362 418 306 365 q 485 524 418 471 q 618 633 551 576 l 228 633 l 306 906 l 1099 906 l 1040 697 q 1033 676 1036 686 q 1024 656 1031 667 q 948 551 993 601 q 849 453 903 501 q 738 360 796 406 q 626 272 681 315 l 1072 272 l 994 0 z "},"[":{"ha":629,"x_min":50,"x_max":835,"o":"m 579 0 l 657 272 l 458 272 l 558 633 l 757 633 l 835 906 l 306 906 l 50 0 l 579 0 z "},"\\":{"ha":657,"x_min":278,"x_max":635,"o":"m 601 906 l 278 906 l 313 0 l 635 0 l 601 906 z "},"]":{"ha":629,"x_min":50,"x_max":835,"o":"m 50 0 l 128 272 l 326 272 l 426 633 l 228 633 l 306 906 l 835 906 l 579 0 l 50 0 z "},"^":{"ha":1131,"x_min":24,"x_max":1107,"o":"m 751 663 l 775 0 l 1107 0 l 1079 906 l 563 906 l 24 0 l 356 0 l 751 663 z "},"_":{"ha":800,"x_min":36,"x_max":794,"o":"m 736 -50 l 36 -50 l 94 156 l 794 156 l 736 -50 z "},"`":{"ha":375,"x_min":301,"x_max":600,"o":"m 325 976 l 301 1206 l 576 1206 l 600 976 l 325 976 z "},"a":{"ha":1142,"x_min":24,"x_max":1118,"o":"m 786 139 l 450 139 l 363 0 l 24 0 l 563 906 l 1090 906 l 1118 0 l 793 0 l 786 139 m 590 381 l 781 381 l 765 667 l 590 381 z "},"b":{"ha":1074,"x_min":50,"x_max":1214,"o":"m 1200 618 l 1204 633 q 1210 667 1210 646 q 1201 754 1214 711 q 1160 831 1188 797 q 1094 885 1133 864 q 1007 906 1054 906 l 306 906 l 50 0 l 751 0 q 859 24 803 0 q 965 88 915 49 q 1053 176 1015 128 q 1104 272 1090 224 l 1108 289 q 1111 301 1110 294 q 1114 317 1113 308 q 1106 396 1118 358 q 1078 461 1094 433 q 1149 530 1113 488 q 1200 618 1186 572 m 558 633 l 800 633 q 847 628 832 633 q 860 608 863 624 l 857 600 q 838 578 853 585 q 782 571 822 571 l 540 571 l 558 633 m 474 335 l 715 335 q 765 331 751 335 q 776 313 778 326 q 774 305 775 307 q 774 303 774 303 q 753 280 768 288 q 700 272 739 272 l 458 272 l 474 335 z "},"c":{"ha":935,"x_min":140,"x_max":1140,"o":"m 782 635 l 1064 635 l 1140 906 l 833 906 q 606 881 711 906 q 415 803 500 857 q 269 664 331 750 q 174 454 207 578 l 174 450 q 153 241 140 326 q 219 102 165 156 q 363 24 272 49 q 578 0 454 0 l 885 0 l 963 272 l 657 272 q 503 410 490 285 q 511 450 506 429 l 513 454 q 601 589 538 543 q 782 635 664 635 z "},"d":{"ha":1076,"x_min":50,"x_max":1189,"o":"m 50 0 l 499 0 q 726 24 621 0 q 916 102 832 49 q 1061 241 1000 156 q 1156 450 1122 326 l 1157 454 q 1171 508 1165 481 q 1179 565 1176 536 q 1164 722 1189 657 q 1084 828 1139 788 q 946 887 1029 868 q 754 906 863 906 l 306 906 l 50 0 m 653 635 q 795 601 754 635 q 829 501 836 568 q 825 477 828 489 q 819 454 822 465 l 818 450 q 575 272 772 286 l 457 272 l 558 635 l 653 635 z "},"e":{"ha":939,"x_min":50,"x_max":1144,"o":"m 944 333 l 472 333 l 457 272 l 967 272 l 889 0 l 50 0 l 306 906 l 1144 906 l 1067 633 l 557 633 l 540 572 l 1013 572 l 944 333 z "},"f":{"ha":851,"x_min":50,"x_max":1057,"o":"m 857 329 l 472 329 l 379 0 l 50 0 l 306 906 l 1057 906 l 979 633 l 557 633 l 540 572 l 925 572 l 857 329 z "},"g":{"ha":1065,"x_min":143,"x_max":1271,"o":"m 781 635 l 1194 635 l 1271 906 l 833 906 q 606 881 711 906 q 415 803 500 857 q 269 664 331 750 q 174 456 207 578 l 174 450 q 153 339 157 390 q 167 183 143 247 q 247 78 192 118 q 386 19 303 38 q 578 0 469 0 l 1015 0 l 1156 496 l 826 496 l 764 272 l 626 272 q 519 310 547 279 q 499 397 492 342 q 502 422 500 408 q 510 450 504 435 l 511 454 q 599 589 536 543 q 781 635 663 635 z "},"h":{"ha":1076,"x_min":50,"x_max":1282,"o":"m 697 0 l 1026 0 l 1282 906 l 953 906 l 860 578 l 542 578 l 635 906 l 306 906 l 50 0 l 379 0 l 472 333 l 790 333 l 697 0 z "},"i":{"ha":429,"x_min":50,"x_max":635,"o":"m 379 0 l 635 906 l 306 906 l 50 0 l 379 0 z "},"j":{"ha":792,"x_min":50,"x_max":997,"o":"m 50 0 l 128 272 l 388 272 q 443 282 421 272 q 481 309 465 292 q 507 349 497 326 q 524 400 517 372 l 667 906 l 997 906 l 814 257 q 764 167 801 213 q 678 84 726 121 q 578 24 631 47 q 486 0 526 0 l 50 0 z "},"k":{"ha":1053,"x_min":50,"x_max":1283,"o":"m 890 906 l 542 578 l 635 906 l 306 906 l 50 0 l 379 0 l 476 347 l 649 0 l 1026 0 l 796 451 l 1283 906 l 890 906 z "},"l":{"ha":788,"x_min":50,"x_max":815,"o":"m 50 0 l 306 906 l 635 906 l 457 272 l 815 272 l 738 0 l 50 0 z "},"m":{"ha":1251,"x_min":50,"x_max":1457,"o":"m 1201 0 l 871 0 l 971 354 l 654 0 l 599 0 l 479 354 l 379 0 l 50 0 l 306 906 l 640 906 l 768 544 l 1096 906 l 1457 906 l 1201 0 z "},"n":{"ha":1076,"x_min":50,"x_max":1282,"o":"m 1026 0 l 707 0 l 496 415 l 379 0 l 50 0 l 306 906 l 626 906 l 835 492 l 953 906 l 1282 906 l 1026 0 z "},"o":{"ha":1176,"x_min":143,"x_max":1289,"o":"m 585 -7 q 390 13 475 -7 q 249 74 306 32 q 168 183 193 117 q 153 343 143 249 q 174 450 157 392 l 174 453 q 271 662 208 575 q 419 803 333 749 q 613 884 506 858 q 843 910 719 910 q 1037 890 951 910 q 1179 829 1122 871 q 1263 722 1236 788 q 1279 564 1289 657 q 1270 510 1276 538 q 1256 453 1264 483 l 1256 450 q 1156 240 1219 326 q 1007 98 1093 153 q 814 18 921 43 q 585 -7 707 -7 m 767 640 q 663 628 706 640 q 590 591 619 615 q 541 532 560 567 q 510 453 522 497 l 510 450 q 499 392 503 431 q 528 297 492 331 q 663 264 564 264 q 837 313 779 264 q 919 450 894 361 l 919 453 q 927 481 925 467 q 931 508 929 494 q 901 606 938 571 q 767 640 864 640 z "},"p":{"ha":1076,"x_min":50,"x_max":1214,"o":"m 379 0 l 50 0 l 306 906 l 1007 906 q 1094 885 1054 906 q 1160 829 1133 864 q 1201 751 1188 794 q 1210 664 1214 708 q 1208 647 1208 656 q 1204 631 1207 639 l 1172 521 q 1122 426 1160 475 q 1032 336 1083 376 q 924 270 981 296 q 819 244 868 244 l 447 244 l 379 0 m 524 513 l 747 513 q 819 528 799 513 q 850 572 839 543 l 853 586 q 842 621 856 608 q 781 633 828 633 l 557 633 l 524 513 z "},"q":{"ha":1226,"x_min":146,"x_max":1317,"o":"m 588 -7 q 660 -4 624 -7 q 731 1 697 -1 l 740 0 l 1121 0 l 1317 272 l 1188 272 q 1263 450 1236 350 l 1263 453 q 1277 510 1271 483 q 1286 563 1283 538 q 1269 722 1296 656 q 1184 829 1242 788 q 1041 890 1126 871 q 847 910 956 910 q 617 884 724 910 q 424 803 510 858 q 274 662 338 749 q 176 453 211 575 l 176 450 q 156 343 160 392 q 171 183 146 249 q 252 74 196 117 q 393 13 308 32 q 588 -7 478 -7 m 661 446 l 640 446 l 589 271 q 513 313 531 283 q 501 390 496 342 q 505 419 503 404 q 513 450 507 433 l 513 453 q 544 532 525 497 q 594 591 564 567 q 667 628 624 615 q 771 640 710 640 q 908 606 871 640 q 938 507 944 571 q 926 453 936 474 l 926 450 q 905 392 918 418 q 876 347 892 367 l 661 446 z "},"r":{"ha":1194,"x_min":50,"x_max":1222,"o":"m 379 0 l 50 0 l 306 906 l 1010 906 q 1083 886 1049 906 q 1142 835 1117 867 q 1179 765 1167 804 q 1188 683 1192 725 q 1185 667 1186 675 q 1181 650 1183 658 l 1157 569 q 1117 475 1143 521 q 1053 390 1092 429 q 965 321 1015 351 q 853 272 915 290 l 1222 272 l 1144 0 l 613 0 q 546 33 575 4 q 497 101 517 61 q 465 187 476 142 q 454 269 454 232 l 379 0 m 526 524 l 715 524 q 787 536 761 524 q 824 578 813 549 l 824 586 q 746 633 829 633 l 557 633 l 526 524 z "},"s":{"ha":1044,"x_min":50,"x_max":1250,"o":"m 50 0 l 714 0 q 790 14 753 0 q 858 53 826 28 q 912 111 889 78 q 946 185 935 144 q 951 211 949 199 q 956 236 954 224 q 946 342 961 292 q 903 440 931 392 q 843 535 876 488 q 779 633 810 582 l 1172 633 l 1250 906 l 657 906 q 576 890 617 906 q 501 846 536 874 q 438 780 465 818 q 399 697 411 742 q 390 667 392 681 l 390 656 q 408 550 389 601 q 455 451 426 499 q 517 358 483 403 q 578 272 550 314 l 128 272 l 50 0 z "},"t":{"ha":1015,"x_min":228,"x_max":1221,"o":"m 306 906 l 1221 906 l 1143 633 l 850 633 l 672 0 l 343 0 l 521 633 l 228 633 l 306 906 z "},"u":{"ha":1075,"x_min":144,"x_max":1281,"o":"m 949 906 l 818 444 q 751 324 796 365 q 615 272 706 282 q 517 309 544 279 q 496 393 489 339 q 499 417 497 404 q 507 444 501 431 l 638 906 l 306 906 l 176 446 q 161 386 167 414 q 153 332 156 358 q 167 184 144 246 q 239 82 189 122 q 364 22 289 42 q 538 -3 439 1 q 751 28 653 1 q 926 108 849 54 q 1061 244 1004 161 q 1151 446 1118 328 l 1281 906 l 949 906 z "},"v":{"ha":1113,"x_min":279,"x_max":1344,"o":"m 625 264 l 1006 906 l 1344 906 l 806 0 l 307 0 l 279 906 l 604 906 l 625 264 z "},"w":{"ha":1464,"x_min":279,"x_max":1696,"o":"m 1143 563 l 1126 906 l 835 906 l 619 563 l 604 906 l 279 906 l 307 0 l 635 0 l 832 357 l 829 0 l 1157 0 l 1696 906 l 1357 906 l 1143 563 z "},"x":{"ha":1043,"x_min":26,"x_max":1274,"o":"m 886 906 l 721 736 l 654 906 l 281 906 l 472 451 l 26 0 l 413 0 l 575 168 l 644 0 l 1017 0 l 824 451 l 1274 906 l 886 906 z "},"y":{"ha":1043,"x_min":281,"x_max":1274,"o":"m 888 906 l 1274 906 l 801 407 l 686 0 l 357 0 l 471 406 l 281 906 l 656 906 l 721 733 l 888 906 z "},"z":{"ha":1044,"x_min":151,"x_max":1099,"o":"m 994 0 l 151 0 l 203 185 q 263 308 221 251 q 362 418 306 365 q 485 524 418 471 q 618 633 551 576 l 228 633 l 306 906 l 1099 906 l 1040 697 q 1033 676 1036 686 q 1024 656 1031 667 q 947 551 993 601 q 848 453 901 501 q 737 360 794 406 q 625 272 679 315 l 1072 272 l 994 0 z "},"{":{"ha":629,"x_min":93,"x_max":854,"o":"m 560 -69 l 636 203 l 542 203 q 476 226 490 203 q 465 285 461 249 q 474 333 468 308 l 540 571 q 588 666 556 629 q 682 703 619 703 l 776 703 l 854 975 l 581 975 q 488 951 540 975 q 388 891 436 928 q 301 808 339 854 q 251 718 264 763 l 103 188 q 100 176 101 182 q 97 161 99 169 q 108 78 93 119 q 151 4 124 38 q 213 -49 178 -29 q 286 -69 249 -69 l 560 -69 z "},"|":{"ha":429,"x_min":4,"x_max":681,"o":"m 333 -162 l 681 1069 l 351 1069 l 4 -162 l 333 -162 z "},"}":{"ha":629,"x_min":31,"x_max":790,"o":"m 31 -69 l 107 203 l 201 203 q 258 213 235 203 q 298 242 282 224 q 324 283 314 260 q 342 333 335 307 l 408 571 q 416 598 414 585 q 419 622 418 611 q 407 681 424 658 q 342 703 390 703 l 247 703 l 325 975 l 599 975 q 670 955 635 975 q 733 902 706 935 q 775 828 760 869 q 786 746 790 788 q 781 718 786 729 l 632 188 q 582 97 619 143 q 496 15 544 51 q 396 -46 447 -22 q 304 -69 344 -69 l 31 -69 z "},"~":{"ha":1076,"x_min":50,"x_max":1218,"o":"m 381 0 l 558 633 l 769 633 q 835 610 821 633 q 847 551 850 588 q 843 528 846 540 q 838 503 840 515 l 696 0 l 1026 0 l 1208 649 q 1211 660 1210 654 q 1214 675 1213 667 q 1203 758 1218 717 q 1160 832 1188 799 q 1098 885 1133 865 q 1026 906 1063 906 l 306 906 l 50 0 l 381 0 z "},"":{"ha":324,"x_min":0,"x_max":0,"o":""},"€":{"ha":1017,"x_min":101,"x_max":1222,"o":"m 776 482 l 611 482 l 596 424 l 761 424 l 719 275 q 735 273 726 274 q 753 272 744 272 l 1044 272 l 967 0 l 668 0 q 398 42 504 0 q 256 185 292 85 l 101 185 l 169 424 l 257 424 l 272 482 l 185 482 l 254 721 l 408 721 q 630 863 500 821 q 924 906 760 906 l 1222 906 l 1146 635 l 878 635 q 847 634 863 635 q 819 632 832 633 l 776 482 z "},"‚":{"ha":429,"x_min":-1,"x_max":457,"o":"m -1 -179 l 128 272 l 457 272 l 386 21 q 234 -85 315 -37 q 60 -179 153 -133 l -1 -179 z "},"ƒ":{"ha":1129,"x_min":138,"x_max":1225,"o":"m 1225 519 l 1188 532 l 1136 379 l 1163 374 l 1225 519 m 1150 311 l 1128 324 l 1099 304 l 1114 281 l 1150 311 m 1078 322 l 1133 521 l 1108 532 l 1061 393 l 996 519 l 944 321 l 971 324 l 1000 422 q 1078 322 1038 322 m 914 324 l 953 474 q 926 536 957 536 q 899 531 904 536 q 822 432 854 482 q 771 332 790 382 l 807 332 q 865 379 844 379 q 893 332 889 379 l 914 324 m 808 532 l 772 524 l 697 321 l 743 335 l 808 532 m 664 317 l 719 514 l 690 524 l 646 385 l 581 514 l 526 311 l 556 318 l 582 413 q 664 317 619 317 m 544 456 q 490 522 549 522 l 481 522 q 480 522 482 522 q 471 521 478 521 q 357 346 394 478 q 408 313 357 313 q 438 317 421 313 q 544 456 489 317 m 396 529 q 233 411 260 506 l 231 400 q 230 397 231 400 q 228 386 229 393 l 228 385 q 271 297 219 297 q 288 300 278 297 q 311 306 297 303 l 318 340 q 281 335 308 335 q 253 363 250 335 q 255 372 254 369 q 256 375 256 375 q 304 456 267 413 q 363 485 338 485 q 370 484 369 485 q 378 481 371 483 l 396 529 m 247 524 l 214 517 l 138 311 l 182 326 l 247 524 m 908 422 l 853 422 l 906 490 l 908 422 m 503 428 q 472 368 493 393 q 419 350 438 350 q 406 399 393 350 l 408 413 q 478 476 450 476 q 504 450 500 476 q 503 428 510 444 z "},"„":{"ha":824,"x_min":-1,"x_max":851,"o":"m 393 -179 l 522 272 l 851 272 l 781 21 q 628 -85 710 -37 q 454 -179 547 -133 l 393 -179 m -1 -179 l 128 272 l 457 272 l 386 21 q 234 -85 315 -37 q 60 -179 153 -133 l -1 -179 z "},"…":{"ha":1254,"x_min":50,"x_max":1282,"o":"m 875 0 l 953 272 l 1282 272 l 1204 0 l 875 0 m 463 0 l 540 272 l 869 272 l 792 0 l 463 0 m 50 0 l 128 272 l 457 272 l 379 0 l 50 0 z "},"†":{"ha":618,"x_min":144,"x_max":772,"o":"m 608 482 l 474 0 l 144 0 l 279 482 l 185 482 l 254 721 l 349 721 l 400 906 l 729 906 l 678 721 l 772 721 l 703 482 l 608 482 z "},"‡":{"ha":618,"x_min":101,"x_max":772,"o":"m 619 185 l 525 185 l 474 0 l 144 0 l 196 185 l 101 185 l 169 424 l 264 424 l 279 482 l 185 482 l 254 721 l 349 721 l 400 906 l 729 906 l 678 721 l 772 721 l 703 482 l 608 482 l 593 424 l 688 424 l 619 185 z "},"ˆ":{"ha":744,"x_min":325,"x_max":969,"o":"m 694 976 l 682 1100 l 600 976 l 325 976 l 476 1206 l 946 1206 l 969 976 l 694 976 z "},"‰":{"ha":2069,"x_min":217,"x_max":2108,"o":"m 1015 906 l 1306 906 l 726 0 l 438 0 l 1015 906 m 1251 297 q 1190 281 1207 297 q 1163 232 1174 265 l 1161 231 q 1158 218 1160 224 q 1157 207 1157 213 q 1167 176 1154 186 q 1215 165 1179 165 q 1278 181 1260 165 q 1306 231 1297 197 l 1307 232 q 1310 245 1308 239 q 1311 257 1311 251 q 1301 288 1314 278 q 1251 297 1288 297 m 1169 0 q 1002 41 1061 0 q 953 175 943 82 q 958 206 956 193 q 964 229 960 219 l 964 231 q 1086 406 1000 353 q 1299 458 1172 458 q 1467 418 1408 458 q 1517 286 1526 378 q 1512 258 1514 272 q 1504 231 1510 244 l 1504 229 q 1382 53 1469 106 q 1169 0 1294 0 m 525 744 q 463 728 481 744 q 435 679 446 713 l 435 678 q 432 665 433 671 q 429 653 431 658 q 439 622 426 632 q 488 613 451 613 q 550 628 532 613 q 579 678 568 644 l 579 679 q 585 704 585 690 q 574 735 588 725 q 525 744 561 744 m 443 447 q 276 488 335 447 q 226 622 217 529 q 231 653 229 640 q 238 676 233 667 l 238 678 q 360 853 274 800 q 572 906 446 906 q 741 865 682 906 q 789 733 800 825 q 785 706 788 719 q 778 678 783 692 l 778 676 q 656 500 743 553 q 443 447 568 447 m 1833 297 q 1772 281 1789 297 q 1744 232 1756 265 l 1743 231 q 1740 218 1742 224 q 1739 207 1739 213 q 1749 176 1736 186 q 1797 165 1761 165 q 1860 181 1842 165 q 1888 231 1879 197 l 1889 232 q 1892 245 1890 239 q 1893 257 1893 251 q 1883 288 1896 278 q 1833 297 1869 297 m 1751 0 q 1584 41 1643 0 q 1535 175 1525 82 q 1540 206 1538 193 q 1546 229 1542 219 l 1546 231 q 1668 406 1582 353 q 1881 458 1754 458 q 2049 418 1990 458 q 2099 286 2108 378 q 2094 258 2096 272 q 2086 231 2092 244 l 2086 229 q 1964 53 2051 106 q 1751 0 1876 0 z "},"Š":{"ha":1044,"x_min":50,"x_max":1250,"o":"m 714 0 l 50 0 l 128 272 l 578 272 q 517 358 550 314 q 455 451 483 403 q 408 550 426 499 q 390 656 389 601 l 390 667 q 399 697 392 681 q 438 780 411 742 q 501 846 465 818 q 576 890 536 874 q 657 906 617 906 l 1250 906 l 1172 633 l 779 633 q 843 535 810 582 q 903 440 876 488 q 946 343 931 393 q 956 238 961 293 q 952 213 954 226 q 944 185 950 200 q 910 111 933 144 q 857 53 888 78 q 790 14 826 28 q 714 0 753 0 m 881 1206 l 893 1082 l 975 1206 l 1250 1206 l 1099 976 l 629 976 l 606 1206 l 881 1206 z "},"‹":{"ha":329,"x_min":110,"x_max":496,"o":"m 419 497 l 282 450 l 392 403 l 315 128 l 110 215 l 243 685 l 496 772 l 419 497 z "},"Œ":{"ha":1735,"x_min":143,"x_max":1940,"o":"m 1740 333 l 1268 333 l 1253 272 l 1763 272 l 1685 0 l 578 0 q 386 19 469 0 q 247 78 303 38 q 167 183 192 118 q 153 339 143 247 q 174 450 157 390 l 175 454 q 269 664 208 578 q 415 803 331 750 q 606 881 500 857 q 833 906 711 906 l 1940 906 l 1863 633 l 1353 633 l 1336 572 l 1808 572 l 1740 333 m 511 450 q 503 410 506 429 q 657 272 490 285 l 924 272 l 1025 635 l 782 635 q 601 589 664 635 q 513 454 538 543 l 511 450 z "},"Ž":{"ha":1044,"x_min":151,"x_max":1117,"o":"m 151 0 l 994 0 l 1072 272 l 622 272 q 734 360 676 315 q 846 453 792 406 q 947 551 900 501 q 1024 656 993 601 q 1033 676 1031 667 q 1040 697 1036 686 l 1099 906 l 306 906 l 228 633 l 621 633 q 488 524 554 576 q 364 418 421 471 q 265 308 307 365 q 203 185 222 251 l 151 0 m 842 1206 l 760 1082 l 747 1206 l 472 1206 l 496 976 l 965 976 l 1117 1206 l 842 1206 z "},"‘":{"ha":429,"x_min":176,"x_max":633,"o":"m 633 904 l 506 453 l 176 453 l 247 704 q 399 810 318 763 q 572 904 481 858 l 633 904 z "},"’":{"ha":429,"x_min":178,"x_max":635,"o":"m 178 454 l 306 906 l 635 906 l 564 654 q 413 548 493 596 q 239 454 332 500 l 178 454 z "},"“":{"ha":824,"x_min":176,"x_max":1028,"o":"m 633 904 l 506 453 l 176 453 l 247 704 q 399 810 318 763 q 572 904 481 858 l 633 904 m 1028 904 l 900 453 l 571 453 l 642 704 q 794 810 713 763 q 967 904 875 858 l 1028 904 z "},"”":{"ha":824,"x_min":178,"x_max":1029,"o":"m 572 454 l 700 906 l 1029 906 l 958 654 q 807 548 888 596 q 633 454 726 500 l 572 454 m 178 454 l 306 906 l 635 906 l 564 654 q 413 548 493 596 q 239 454 332 500 l 178 454 z "},"•":{"ha":1185,"x_min":146,"x_max":1294,"o":"m 589 -7 q 395 13 481 -7 q 253 74 310 32 q 172 183 197 117 q 156 343 146 249 q 176 450 160 392 l 176 453 q 274 662 211 575 q 424 803 338 749 q 617 884 510 858 q 847 910 724 910 q 1041 890 956 910 q 1184 829 1126 871 q 1268 722 1242 788 q 1285 563 1294 656 q 1276 510 1282 538 q 1261 453 1269 483 l 1261 450 q 1162 240 1225 326 q 1013 98 1099 153 q 819 18 926 43 q 589 -7 713 -7 z "},"–":{"ha":565,"x_min":143,"x_max":678,"o":"m 608 333 l 678 578 l 213 578 l 143 333 l 608 333 z "},"—":{"ha":758,"x_min":143,"x_max":871,"o":"m 801 333 l 143 333 l 213 578 l 871 578 l 801 333 z "},"˜":{"ha":882,"x_min":325,"x_max":1258,"o":"m 694 976 l 682 1100 l 600 976 l 325 976 l 476 1206 l 889 1206 l 901 1082 l 983 1206 l 1258 1206 l 1107 976 l 694 976 z "},"™":{"ha":750,"x_min":299,"x_max":975,"o":"m 518 633 l 589 881 l 503 881 l 432 633 l 329 633 l 400 881 l 299 881 l 325 974 l 736 974 l 744 796 l 854 974 l 975 974 l 878 633 l 778 633 l 808 739 l 743 633 l 656 633 l 651 747 l 618 633 l 518 633 z "},"š":{"ha":1044,"x_min":50,"x_max":1250,"o":"m 714 0 l 50 0 l 128 272 l 578 272 q 517 358 550 314 q 455 451 483 403 q 408 550 426 499 q 390 656 389 601 l 390 667 q 399 697 392 681 q 438 780 411 742 q 501 846 465 818 q 576 890 536 874 q 657 906 617 906 l 1250 906 l 1172 633 l 779 633 q 843 535 810 582 q 903 440 876 488 q 946 343 931 393 q 956 238 961 293 q 952 213 954 226 q 944 185 950 200 q 910 111 933 144 q 857 53 888 78 q 790 14 826 28 q 714 0 753 0 m 881 1206 l 893 1082 l 975 1206 l 1250 1206 l 1099 976 l 629 976 l 606 1206 l 881 1206 z "},"›":{"ha":329,"x_min":86,"x_max":472,"o":"m 190 497 l 300 450 l 163 403 l 86 128 l 339 215 l 472 685 l 267 772 l 190 497 z "},"œ":{"ha":1735,"x_min":143,"x_max":1940,"o":"m 1740 333 l 1268 333 l 1253 272 l 1763 272 l 1685 0 l 578 0 q 386 19 469 0 q 247 78 303 38 q 167 183 192 118 q 153 339 143 247 q 174 450 157 390 l 175 454 q 269 664 208 578 q 415 803 331 750 q 606 881 500 857 q 833 906 711 906 l 1940 906 l 1863 633 l 1353 633 l 1336 572 l 1808 572 l 1740 333 m 511 450 q 503 410 506 429 q 657 272 490 285 l 924 272 l 1025 635 l 782 635 q 601 589 664 635 q 513 454 538 543 l 511 450 z "},"ž":{"ha":1044,"x_min":151,"x_max":1117,"o":"m 151 0 l 994 0 l 1072 272 l 622 272 q 734 360 676 315 q 846 453 792 406 q 947 551 900 501 q 1024 656 993 601 q 1033 676 1031 667 q 1040 697 1036 686 l 1099 906 l 306 906 l 228 633 l 621 633 q 488 524 554 576 q 364 418 421 471 q 265 308 307 365 q 203 185 222 251 l 151 0 m 842 1206 l 760 1082 l 747 1206 l 472 1206 l 496 976 l 965 976 l 1117 1206 l 842 1206 z "},"Ÿ":{"ha":1076,"x_min":206,"x_max":1281,"o":"m 772 256 l 701 0 l 372 0 l 443 256 q 263 361 321 285 q 219 572 206 438 q 228 624 222 596 q 243 685 235 653 l 306 906 l 638 906 l 572 675 q 564 631 567 650 q 584 548 557 578 q 682 511 611 518 q 817 563 771 521 q 886 683 863 604 l 949 906 l 1281 906 l 1218 685 q 1051 392 1165 494 q 772 256 936 289 m 506 976 l 569 1206 l 844 1206 l 781 976 l 506 976 m 843 976 l 907 1206 l 1182 1206 l 1118 976 l 843 976 z "},"¡":{"ha":429,"x_min":50,"x_max":635,"o":"m 379 0 l 540 572 l 211 572 l 50 0 l 379 0 m 306 906 l 228 633 l 557 633 l 635 906 l 306 906 z "},"¢":{"ha":938,"x_min":113,"x_max":1143,"o":"m 726 -108 l 485 -108 l 515 0 l 306 0 q 233 20 268 0 q 170 73 197 40 q 128 147 143 106 q 117 229 113 188 q 119 243 118 236 q 122 257 121 250 l 232 649 q 282 739 244 693 q 368 822 319 785 q 469 882 417 858 q 561 906 521 906 l 771 906 l 801 1015 l 1043 1015 l 1013 906 l 1143 906 l 1065 633 l 935 633 l 835 272 l 965 272 l 888 0 l 757 0 l 726 -108 m 493 403 q 485 354 488 378 q 496 295 481 318 q 563 272 511 272 l 593 272 l 693 633 l 663 633 q 608 623 631 633 q 569 595 585 613 q 542 553 553 578 q 522 501 531 529 l 493 403 z "},"£":{"ha":1049,"x_min":50,"x_max":1076,"o":"m 371 614 l 376 633 q 428 729 390 681 q 515 817 465 778 q 622 881 565 856 q 729 906 678 906 l 989 906 l 911 633 l 781 633 q 728 626 744 633 q 704 600 711 619 l 703 593 q 714 576 701 582 q 763 571 726 571 l 1021 571 l 954 335 l 696 335 q 642 328 656 335 q 621 303 628 322 l 619 297 q 632 278 618 285 q 681 272 646 272 l 1076 272 l 999 0 l 50 0 l 128 272 l 276 272 l 281 292 l 296 335 l 143 335 l 210 571 l 364 571 l 365 579 q 367 594 367 586 q 371 614 368 603 z "},"¤":{"ha":1043,"x_min":26,"x_max":1274,"o":"m 721 736 l 886 906 l 1274 906 l 965 594 q 972 513 976 544 q 967 478 969 494 q 958 449 964 463 l 958 447 q 888 304 936 363 l 1017 0 l 644 0 l 575 168 l 413 0 l 26 0 l 329 307 q 326 379 322 354 q 331 411 328 394 q 340 447 335 428 l 340 449 q 413 592 363 533 l 281 906 l 654 906 l 721 736 m 669 526 q 597 508 618 526 q 565 450 576 490 l 565 449 q 560 419 560 436 q 571 383 557 394 q 625 372 585 372 q 698 390 676 372 q 731 449 719 408 l 731 450 q 736 479 736 463 q 724 515 739 504 q 669 526 710 526 z "},"¥":{"ha":1076,"x_min":85,"x_max":1282,"o":"m 999 136 l 740 136 l 728 89 l 986 89 l 932 -106 l 674 -106 l 642 -217 l 313 -217 l 344 -106 l 85 -106 l 139 89 l 399 89 l 411 136 l 151 136 l 207 331 l 467 331 l 482 386 l 414 386 q 342 406 378 386 q 278 458 306 425 q 235 531 250 490 q 224 613 219 571 q 226 626 225 619 q 229 640 228 633 l 306 906 l 635 906 l 600 786 q 592 736 593 758 q 602 678 588 700 q 668 656 617 656 l 778 656 q 834 666 811 656 q 874 694 857 676 q 901 736 890 713 q 918 786 911 760 l 953 906 l 1282 906 l 1206 640 q 1155 549 1193 594 q 1069 468 1117 504 q 969 409 1021 432 q 879 386 918 386 l 811 386 l 796 331 l 1054 331 l 999 136 z "},"¦":{"ha":429,"x_min":4,"x_max":681,"o":"m 514 482 l 185 482 l 351 1069 l 681 1069 l 514 482 m 333 -162 l 4 -162 l 169 424 l 499 424 l 333 -162 z "},"§":{"ha":1043,"x_min":26,"x_max":1274,"o":"m 717 717 l 900 906 l 1274 906 l 965 594 q 972 513 976 544 q 967 478 969 494 q 958 449 964 463 l 958 447 q 820 240 918 303 q 583 178 722 178 l 413 0 l 26 0 l 329 307 q 326 379 322 354 q 331 411 328 394 q 340 447 335 428 l 340 449 q 480 651 382 588 q 717 717 578 714 m 669 526 q 597 508 618 526 q 565 450 576 490 l 565 449 q 560 419 560 436 q 571 383 557 394 q 625 372 585 372 q 698 390 676 372 q 731 449 719 408 l 731 450 q 736 479 736 463 q 724 515 739 504 q 669 526 710 526 z "},"¨":{"ha":713,"x_min":325,"x_max":1001,"o":"m 325 976 l 389 1206 l 664 1206 l 600 976 l 325 976 m 663 976 l 726 1206 l 1001 1206 l 938 976 l 663 976 z "},"©":{"ha":418,"x_min":253,"x_max":642,"o":"m 503 1040 q 586 1017 504 1040 q 618 985 607 1004 q 635 944 629 967 q 640 915 638 929 q 639 885 642 900 q 631 846 638 865 q 582 753 615 789 q 540 708 561 726 q 492 679 518 690 q 393 653 440 653 q 310 679 346 653 q 264 753 275 706 q 257 817 253 781 q 259 831 258 824 q 263 846 260 839 q 285 897 271 874 q 317 944 299 921 q 407 1017 353 994 q 503 1040 474 1040 m 493 1010 q 433 999 464 1011 q 374 963 401 986 q 326 910 347 940 q 294 846 304 879 l 294 840 q 293 814 293 836 l 293 772 l 293 768 q 333 708 299 732 q 403 689 365 689 q 486 708 428 689 q 558 768 521 726 q 600 846 589 807 q 603 929 613 882 q 563 988 594 968 q 493 1010 536 1010 m 500 817 l 528 808 q 418 738 488 738 q 346 817 338 738 q 348 831 347 824 q 351 846 349 838 q 479 957 388 957 q 547 896 547 957 l 517 889 q 472 929 506 929 q 385 846 407 929 q 381 833 382 839 q 379 821 381 826 q 424 768 372 768 q 500 817 472 768 z "},"ª":{"ha":601,"x_min":174,"x_max":725,"o":"m 468 972 l 174 525 l 375 525 l 400 557 l 525 557 l 532 525 l 725 525 l 683 972 l 468 972 m 468 667 l 514 742 l 514 667 l 468 667 z "},"«":{"ha":639,"x_min":110,"x_max":806,"o":"m 419 497 l 282 450 l 392 403 l 315 128 l 110 215 l 243 685 l 496 772 l 419 497 m 729 497 l 592 450 l 701 403 l 625 128 l 419 215 l 553 685 l 806 772 l 729 497 z "},"¬":{"ha":657,"x_min":143,"x_max":769,"o":"m 411 176 l 456 333 l 143 333 l 213 578 l 769 578 l 656 176 l 411 176 z "},"­":{"ha":481,"x_min":143,"x_max":593,"o":"m 524 333 l 593 578 l 213 578 l 143 333 l 524 333 z "},"®":{"ha":419,"x_min":254,"x_max":643,"o":"m 503 1040 q 585 1017 544 1040 q 633 944 625 993 q 640 882 643 924 q 632 846 639 865 q 581 753 618 794 q 541 711 561 728 q 490 679 521 694 q 393 653 439 653 q 308 679 343 653 q 281 711 293 694 q 261 753 269 728 q 256 788 258 772 q 257 814 254 803 q 263 846 257 833 q 283 897 271 874 q 314 944 296 921 q 356 985 333 967 q 406 1017 378 1004 q 503 1040 472 1040 m 493 1010 q 433 999 464 1011 q 375 963 403 986 q 326 910 347 940 q 294 846 304 879 l 294 840 q 293 814 293 836 l 293 772 l 293 768 q 306 737 297 753 q 332 708 315 721 q 403 686 367 686 q 486 708 443 686 q 524 733 507 718 q 560 768 542 749 q 583 809 574 793 q 597 835 592 825 q 603 850 601 844 q 604 861 604 856 q 606 876 604 872 q 604 929 608 907 l 603 935 q 588 963 596 950 q 561 988 581 976 q 493 1010 539 1010 m 339 740 l 397 949 l 464 949 q 494 948 482 949 q 514 943 506 947 q 524 933 521 939 q 531 924 528 928 q 535 903 536 908 q 533 893 535 894 q 506 853 526 869 q 460 835 486 836 q 478 816 475 828 q 490 782 481 804 l 506 740 l 464 740 l 457 774 q 435 822 446 817 q 414 828 433 828 l 394 828 l 369 740 l 339 740 m 403 857 l 440 857 q 482 865 469 857 q 499 889 494 872 l 501 897 q 489 918 503 914 q 457 919 489 919 l 421 919 l 403 857 z "},"¯":{"ha":800,"x_min":261,"x_max":1018,"o":"m 961 749 l 261 749 l 318 954 l 1018 954 l 961 749 z "},"°":{"ha":375,"x_min":325,"x_max":664,"o":"m 325 976 l 389 1206 l 664 1206 l 600 976 l 325 976 z "},"±":{"ha":657,"x_min":50,"x_max":804,"o":"m 289 296 l 332 453 l 176 453 l 247 697 l 403 697 l 446 853 l 690 853 l 647 697 l 804 697 l 733 453 l 576 453 l 533 296 l 289 296 m 607 0 l 50 0 l 118 244 l 675 244 l 607 0 z "},"²":{"ha":467,"x_min":222,"x_max":663,"o":"m 603 674 l 557 513 l 279 513 q 251 522 263 513 q 233 544 239 531 q 224 575 226 558 q 224 608 222 592 q 228 629 225 626 q 284 716 240 676 q 376 794 328 756 l 396 810 l 279 810 l 324 971 l 589 971 q 621 962 607 971 q 644 939 635 953 q 658 908 654 925 q 661 874 663 890 l 658 861 q 646 829 654 846 q 622 800 638 813 l 479 674 l 603 674 z "},"³":{"ha":485,"x_min":194,"x_max":686,"o":"m 442 810 l 279 810 l 324 971 l 588 971 q 657 944 628 971 q 686 881 686 918 l 679 858 q 665 824 675 842 q 644 790 656 806 q 619 764 632 775 q 594 750 606 753 l 596 749 q 628 681 635 726 q 625 666 626 674 q 621 650 624 658 l 608 607 q 537 538 583 563 q 446 513 490 513 l 194 513 l 240 674 l 411 674 q 427 676 419 674 q 438 688 435 679 l 438 692 q 431 701 439 699 q 415 703 422 703 l 269 703 l 292 782 l 444 782 q 468 797 461 782 l 471 801 q 453 810 471 810 l 442 810 z "},"´":{"ha":375,"x_min":325,"x_max":751,"o":"m 751 1206 l 600 976 l 325 976 l 476 1206 l 751 1206 z "},"µ":{"ha":1075,"x_min":15,"x_max":1281,"o":"m 344 -125 l 15 -125 l 306 906 l 638 906 l 507 444 q 499 417 501 431 q 496 393 497 404 q 517 309 489 339 q 615 272 544 279 q 751 324 706 282 q 818 444 796 365 l 949 906 l 1281 906 l 1151 446 q 1061 244 1118 328 q 926 108 1004 161 q 751 28 849 54 q 538 -3 653 1 q 457 4 494 0 q 383 15 419 8 l 344 -125 z "},"¶":{"ha":1101,"x_min":176,"x_max":1307,"o":"m 678 -154 l 900 633 l 818 633 l 596 -154 l 267 -154 l 372 217 q 291 242 328 219 q 228 299 254 265 q 189 376 201 333 q 181 461 176 419 q 183 477 182 469 q 186 493 183 485 l 225 631 q 274 727 238 678 q 361 816 311 776 q 468 881 411 856 q 578 906 525 906 l 1307 906 l 1007 -154 l 678 -154 z "},"·":{"ha":428,"x_min":143,"x_max":540,"o":"m 471 333 l 540 578 l 213 578 l 143 333 l 471 333 z "},"¸":{"ha":303,"x_min":-139,"x_max":253,"o":"m 186 -236 l -139 -236 l -85 -46 l 36 -46 l 49 0 l 253 0 l 186 -236 z "},"¹":{"ha":358,"x_min":254,"x_max":581,"o":"m 322 971 l 581 971 l 453 513 l 254 513 l 338 810 l 278 810 l 322 971 z "},"º":{"ha":635,"x_min":239,"x_max":814,"o":"m 543 810 q 481 794 499 810 q 454 744 464 778 l 453 743 q 453 694 444 710 q 506 678 461 678 q 569 694 550 678 q 597 743 589 710 l 599 744 q 598 794 608 778 q 543 810 588 810 m 461 513 q 354 525 400 513 q 281 565 308 538 q 246 637 253 593 q 256 742 239 681 l 256 743 q 377 918 292 865 q 589 971 463 971 q 698 958 651 971 q 772 918 744 946 q 807 847 800 890 q 796 743 814 804 l 796 742 q 674 565 761 618 q 461 513 586 513 z "},"»":{"ha":639,"x_min":86,"x_max":782,"o":"m 500 497 l 610 450 l 472 403 l 396 128 l 649 215 l 782 685 l 576 772 l 500 497 m 190 497 l 300 450 l 163 403 l 86 128 l 339 215 l 472 685 l 267 772 l 190 497 z "},"¼":{"ha":1546,"x_min":140,"x_max":1654,"o":"m 1653 457 l 1653 460 q 1546 543 1654 490 q 1635 608 1618 553 l 1639 622 l 1457 682 q 1515 747 1499 690 l 1499 771 l 1263 771 l 1293 840 l 1225 850 l 1014 806 l 1008 817 l 1026 850 l 996 885 l 788 782 l 718 850 q 651 806 689 838 q 561 715 614 774 l 461 760 l 457 760 q 367 599 413 760 l 254 613 l 224 543 l 263 463 l 146 442 l 140 385 l 235 326 l 157 268 q 156 264 157 268 q 154 251 156 260 q 175 225 153 225 l 325 193 l 283 156 l 271 113 l 522 88 l 496 31 l 521 10 l 782 56 l 763 -14 l 790 -25 l 1011 88 l 1050 18 l 1104 31 l 1239 156 q 1285 122 1265 133 q 1325 110 1304 110 q 1371 135 1356 110 l 1419 268 l 1514 247 q 1558 296 1546 258 l 1561 306 l 1563 311 q 1561 318 1563 317 l 1526 406 l 1617 406 l 1649 453 l 1653 457 m 1617 442 l 1488 431 q 1529 300 1533 342 l 1528 293 q 1527 290 1528 293 q 1524 281 1526 288 l 1399 306 l 1344 143 l 1231 193 l 1092 56 l 1021 122 l 790 10 l 813 56 l 796 100 l 529 43 l 582 122 l 307 135 l 406 200 l 185 260 l 310 318 l 171 418 l 303 431 l 260 531 l 265 578 l 392 567 l 453 725 q 538 676 506 676 q 564 682 554 676 l 710 817 l 768 747 l 976 850 l 994 840 l 983 771 l 1256 817 l 1214 736 l 1481 736 l 1383 668 l 1594 613 l 1600 589 l 1589 589 l 1479 556 l 1613 463 l 1617 442 m 1444 519 l 1407 532 l 1356 379 l 1382 374 l 1444 519 m 1369 311 l 1347 324 l 1318 304 l 1333 281 l 1369 311 m 1297 322 l 1353 521 l 1328 532 l 1281 393 l 1215 519 l 1164 321 l 1190 324 l 1219 422 q 1297 322 1257 322 m 1133 324 l 1172 474 q 1146 536 1176 536 q 1118 531 1124 536 q 1042 432 1074 482 q 990 332 1010 382 l 1026 332 q 1085 379 1064 379 q 1113 332 1108 379 l 1133 324 m 1028 532 l 992 524 l 917 321 l 963 335 l 1028 532 m 883 317 l 939 514 l 910 524 l 865 385 l 800 514 l 746 311 l 775 318 l 801 413 q 883 317 839 317 m 764 456 q 710 522 768 522 l 700 522 q 699 522 701 522 q 690 521 697 521 q 576 346 614 478 q 628 313 576 313 q 657 317 640 313 q 764 456 708 317 m 615 529 q 453 411 479 506 l 450 400 q 449 397 450 400 q 447 386 449 393 l 447 385 q 490 297 439 297 q 507 300 497 297 q 531 306 517 303 l 538 340 q 500 335 528 335 q 472 363 469 335 q 474 372 474 369 q 475 375 475 375 q 524 456 486 413 q 582 485 557 485 q 590 484 589 485 q 597 481 590 483 l 615 529 m 467 524 l 433 517 l 357 311 l 401 326 l 467 524 m 1128 422 l 1072 422 l 1125 490 l 1128 422 m 722 428 q 692 368 713 393 q 639 350 657 350 q 625 399 613 350 l 628 413 q 697 476 669 476 q 724 450 719 476 q 722 428 729 444 z "},"½":{"ha":1164,"x_min":213,"x_max":1215,"o":"m 790 906 l 1081 906 l 501 0 l 213 0 l 790 906 m 306 906 l 564 906 l 435 447 l 236 447 l 319 744 l 260 744 l 306 906 m 1154 161 l 1110 0 l 811 0 q 783 9 794 0 q 765 32 771 18 q 756 63 758 46 q 756 96 754 79 q 760 117 757 114 q 786 165 767 142 q 831 211 806 189 q 884 255 856 233 q 938 297 913 276 l 811 297 l 857 458 l 1136 458 q 1168 449 1153 458 q 1194 426 1183 440 q 1210 393 1204 411 q 1214 358 1215 375 q 1213 353 1214 356 q 1211 349 1213 351 q 1199 317 1207 333 q 1174 288 1190 300 l 1024 161 l 1154 161 z "},"¾":{"ha":1485,"x_min":140,"x_max":1586,"o":"m 1586 442 l 1457 431 q 1499 300 1503 342 l 1497 293 q 1497 290 1497 293 q 1493 281 1496 288 l 1368 306 l 1314 143 l 1200 193 l 1061 56 l 990 122 l 760 10 l 782 56 l 765 100 l 499 43 l 551 122 l 276 135 l 375 200 l 154 260 l 279 318 l 140 418 l 272 431 l 229 531 l 235 578 l 361 567 l 422 725 q 507 676 475 676 q 533 682 524 676 l 679 817 l 738 747 l 946 850 l 964 840 l 953 771 l 1225 817 l 1183 736 l 1450 736 l 1353 668 l 1564 613 l 1569 589 l 1558 589 l 1449 556 l 1582 463 l 1586 442 m 1414 519 l 1376 532 l 1325 379 l 1351 374 l 1414 519 m 1339 311 l 1317 324 l 1288 304 l 1303 281 l 1339 311 m 1267 322 l 1322 521 l 1297 532 l 1250 393 l 1185 519 l 1133 321 l 1160 324 l 1189 422 q 1267 322 1226 322 m 1103 324 l 1142 474 q 1115 536 1146 536 q 1088 531 1093 536 q 1011 432 1043 482 q 960 332 979 382 l 996 332 q 1054 379 1033 379 q 1082 332 1078 379 l 1103 324 m 997 532 l 961 524 l 886 321 l 932 335 l 997 532 m 853 317 l 908 514 l 879 524 l 835 385 l 769 514 l 715 311 l 744 318 l 771 413 q 853 317 808 317 m 733 456 q 679 522 738 522 l 669 522 q 669 522 671 522 q 660 521 667 521 q 546 346 583 478 q 597 313 546 313 q 626 317 610 313 q 733 456 678 317 m 585 529 q 422 411 449 506 l 419 400 q 419 397 419 400 q 417 386 418 393 l 417 385 q 460 297 408 297 q 476 300 467 297 q 500 306 486 303 l 507 340 q 469 335 497 335 q 442 363 439 335 q 444 372 443 369 q 444 375 444 375 q 493 456 456 413 q 551 485 526 485 q 559 484 558 485 q 567 481 560 483 l 585 529 m 436 524 l 403 517 l 326 311 l 371 326 l 436 524 m 1097 422 l 1042 422 l 1094 490 l 1097 422 m 692 428 q 661 368 682 393 q 608 350 626 350 q 594 399 582 350 l 597 413 q 667 476 639 476 q 693 450 689 476 q 692 428 699 444 z "},"¿":{"ha":788,"x_min":93,"x_max":954,"o":"m 446 571 l 860 571 q 706 422 796 493 q 525 272 617 350 l 815 272 l 738 0 l 247 0 q 182 13 211 0 q 133 48 153 25 q 103 101 113 71 q 97 169 93 132 q 106 208 99 188 q 113 229 110 219 q 122 250 115 239 q 181 337 144 294 q 260 419 217 379 q 352 497 304 460 q 446 571 400 535 m 876 633 l 547 633 l 625 906 l 954 906 l 876 633 z "},"À":{"ha":1139,"x_min":22,"x_max":1117,"o":"m 725 976 l 701 1206 l 976 1206 l 1000 976 l 725 976 m 785 139 l 449 139 l 361 0 l 22 0 l 561 906 l 1089 906 l 1117 0 l 792 0 l 785 139 m 589 381 l 779 381 l 764 667 l 589 381 z "},"Á":{"ha":1139,"x_min":22,"x_max":1117,"o":"m 1114 1206 l 963 976 l 688 976 l 839 1206 l 1114 1206 m 785 139 l 449 139 l 361 0 l 22 0 l 561 906 l 1089 906 l 1117 0 l 792 0 l 785 139 m 589 381 l 779 381 l 764 667 l 589 381 z "},"Â":{"ha":1139,"x_min":22,"x_max":1167,"o":"m 892 976 l 879 1100 l 797 976 l 522 976 l 674 1206 l 1143 1206 l 1167 976 l 892 976 m 785 139 l 449 139 l 361 0 l 22 0 l 561 906 l 1089 906 l 1117 0 l 792 0 l 785 139 m 589 381 l 779 381 l 764 667 l 589 381 z "},"Ã":{"ha":1139,"x_min":22,"x_max":1343,"o":"m 779 976 l 767 1100 l 685 976 l 410 976 l 561 1206 l 974 1206 l 986 1082 l 1068 1206 l 1343 1206 l 1192 976 l 779 976 m 785 139 l 449 139 l 361 0 l 22 0 l 561 906 l 1089 906 l 1117 0 l 792 0 l 785 139 m 589 381 l 779 381 l 764 667 l 589 381 z "},"Ä":{"ha":1139,"x_min":22,"x_max":1214,"o":"m 538 976 l 601 1206 l 876 1206 l 813 976 l 538 976 m 875 976 l 939 1206 l 1214 1206 l 1150 976 l 875 976 m 785 139 l 449 139 l 361 0 l 22 0 l 561 906 l 1089 906 l 1117 0 l 792 0 l 785 139 m 589 381 l 779 381 l 764 667 l 589 381 z "},"Å":{"ha":1139,"x_min":22,"x_max":1117,"o":"m 707 976 l 771 1206 l 1046 1206 l 982 976 l 707 976 m 785 139 l 449 139 l 361 0 l 22 0 l 561 906 l 1089 906 l 1117 0 l 792 0 l 785 139 m 589 381 l 779 381 l 764 667 l 589 381 z "},"Æ":{"ha":1894,"x_min":22,"x_max":2100,"o":"m 785 139 l 449 139 l 361 0 l 22 0 l 561 906 l 1089 906 l 1106 354 l 1261 906 l 2100 906 l 2022 633 l 1513 633 l 1496 572 l 1968 572 l 1900 333 l 1428 333 l 1413 272 l 1922 272 l 1844 0 l 792 0 l 785 139 m 589 381 l 779 381 l 764 667 l 589 381 z "},"Ç":{"ha":935,"x_min":143,"x_max":1140,"o":"m 593 -236 l 268 -236 l 322 -46 l 443 -46 l 457 6 q 298 47 365 17 q 193 132 231 78 q 149 265 156 186 q 174 450 143 343 l 175 454 q 269 664 208 578 q 415 803 331 750 q 606 881 500 857 q 833 906 711 906 l 1140 906 l 1064 635 l 782 635 q 601 589 664 635 q 513 454 538 543 l 511 450 q 503 410 506 429 q 657 272 490 285 l 963 272 l 885 0 l 660 0 l 593 -236 z "},"È":{"ha":939,"x_min":50,"x_max":1144,"o":"m 625 976 l 601 1206 l 876 1206 l 900 976 l 625 976 m 944 333 l 472 333 l 457 272 l 967 272 l 889 0 l 50 0 l 306 906 l 1144 906 l 1067 633 l 557 633 l 540 572 l 1013 572 l 944 333 z "},"É":{"ha":939,"x_min":50,"x_max":1144,"o":"m 944 333 l 472 333 l 457 272 l 967 272 l 889 0 l 50 0 l 306 906 l 1144 906 l 1067 633 l 557 633 l 540 572 l 1013 572 l 944 333 m 1015 1206 l 864 976 l 589 976 l 740 1206 l 1015 1206 z "},"Ê":{"ha":939,"x_min":50,"x_max":1144,"o":"m 792 976 l 779 1100 l 697 976 l 422 976 l 574 1206 l 1043 1206 l 1067 976 l 792 976 m 944 333 l 472 333 l 457 272 l 967 272 l 889 0 l 50 0 l 306 906 l 1144 906 l 1067 633 l 557 633 l 540 572 l 1013 572 l 944 333 z "},"Ë":{"ha":939,"x_min":50,"x_max":1144,"o":"m 438 976 l 501 1206 l 776 1206 l 713 976 l 438 976 m 775 976 l 839 1206 l 1114 1206 l 1050 976 l 775 976 m 944 333 l 472 333 l 457 272 l 967 272 l 889 0 l 50 0 l 306 906 l 1144 906 l 1067 633 l 557 633 l 540 572 l 1013 572 l 944 333 z "},"Ì":{"ha":429,"x_min":50,"x_max":671,"o":"m 396 976 l 372 1206 l 647 1206 l 671 976 l 396 976 m 635 906 l 379 0 l 50 0 l 306 906 l 635 906 z "},"Í":{"ha":429,"x_min":50,"x_max":735,"o":"m 735 1206 l 583 976 l 308 976 l 460 1206 l 735 1206 m 635 906 l 379 0 l 50 0 l 306 906 l 635 906 z "},"Î":{"ha":429,"x_min":50,"x_max":813,"o":"m 538 976 l 525 1100 l 443 976 l 168 976 l 319 1206 l 789 1206 l 813 976 l 538 976 m 635 906 l 379 0 l 50 0 l 306 906 l 635 906 z "},"Ï":{"ha":429,"x_min":50,"x_max":860,"o":"m 183 976 l 247 1206 l 522 1206 l 458 976 l 183 976 m 521 976 l 585 1206 l 860 1206 l 796 976 l 521 976 m 635 906 l 379 0 l 50 0 l 306 906 l 635 906 z "},"Ð":{"ha":1192,"x_min":143,"x_max":1333,"o":"m 165 0 l 258 333 l 143 333 l 211 572 l 326 572 l 421 906 l 1142 906 q 1213 885 1178 906 q 1276 833 1249 865 q 1318 759 1303 800 q 1329 676 1333 718 q 1326 661 1328 668 q 1324 649 1325 654 l 1214 257 q 1164 167 1201 213 q 1078 84 1126 121 q 978 24 1031 47 q 886 0 926 0 l 165 0 m 722 333 l 588 333 l 572 272 l 785 272 q 842 283 818 272 q 881 311 865 293 q 907 353 897 329 q 924 403 917 376 l 953 501 q 958 528 956 515 q 963 553 961 540 q 950 611 967 589 q 885 633 933 633 l 672 633 l 656 572 l 790 572 l 722 333 z "},"Ñ":{"ha":1076,"x_min":50,"x_max":1311,"o":"m 747 976 l 735 1100 l 653 976 l 378 976 l 529 1206 l 942 1206 l 954 1082 l 1036 1206 l 1311 1206 l 1160 976 l 747 976 m 1026 0 l 707 0 l 496 415 l 379 0 l 50 0 l 306 906 l 626 906 l 835 492 l 953 906 l 1282 906 l 1026 0 z "},"Ò":{"ha":1179,"x_min":143,"x_max":1292,"o":"m 746 976 l 722 1206 l 997 1206 l 1021 976 l 746 976 m 586 -7 q 392 13 478 -7 q 251 74 307 32 q 169 183 194 117 q 153 343 143 249 q 174 450 157 392 l 174 453 q 272 662 208 575 q 421 803 335 749 q 614 884 507 858 q 844 910 721 910 q 1038 890 953 910 q 1181 829 1124 871 q 1265 722 1239 788 q 1282 563 1292 656 q 1273 510 1279 538 q 1258 453 1267 483 l 1258 450 q 1159 240 1222 326 q 1010 98 1096 153 q 817 18 924 43 q 586 -7 710 -7 m 768 640 q 664 628 707 640 q 591 591 621 615 q 542 532 561 567 q 510 453 522 497 l 510 450 q 499 392 503 431 q 528 297 492 329 q 664 264 564 264 q 839 313 781 264 q 922 450 897 361 l 922 453 q 933 507 932 474 q 903 606 940 571 q 768 640 865 640 z "},"Ó":{"ha":1179,"x_min":143,"x_max":1292,"o":"m 1135 1206 l 983 976 l 708 976 l 860 1206 l 1135 1206 m 586 -7 q 392 13 478 -7 q 251 74 307 32 q 169 183 194 117 q 153 343 143 249 q 174 450 157 392 l 174 453 q 272 662 208 575 q 421 803 335 749 q 614 884 507 858 q 844 910 721 910 q 1038 890 953 910 q 1181 829 1124 871 q 1265 722 1239 788 q 1282 563 1292 656 q 1273 510 1279 538 q 1258 453 1267 483 l 1258 450 q 1159 240 1222 326 q 1010 98 1096 153 q 817 18 924 43 q 586 -7 710 -7 m 768 640 q 664 628 707 640 q 591 591 621 615 q 542 532 561 567 q 510 453 522 497 l 510 450 q 499 392 503 431 q 528 297 492 329 q 664 264 564 264 q 839 313 781 264 q 922 450 897 361 l 922 453 q 933 507 932 474 q 903 606 940 571 q 768 640 865 640 z "},"Ô":{"ha":1179,"x_min":143,"x_max":1292,"o":"m 911 976 l 899 1100 l 817 976 l 542 976 l 693 1206 l 1163 1206 l 1186 976 l 911 976 m 586 -7 q 392 13 478 -7 q 251 74 307 32 q 169 183 194 117 q 153 343 143 249 q 174 450 157 392 l 174 453 q 272 662 208 575 q 421 803 335 749 q 614 884 507 858 q 844 910 721 910 q 1038 890 953 910 q 1181 829 1124 871 q 1265 722 1239 788 q 1282 563 1292 656 q 1273 510 1279 538 q 1258 453 1267 483 l 1258 450 q 1159 240 1222 326 q 1010 98 1096 153 q 817 18 924 43 q 586 -7 710 -7 m 768 640 q 664 628 707 640 q 591 591 621 615 q 542 532 561 567 q 510 453 522 497 l 510 450 q 499 392 503 431 q 528 297 492 329 q 664 264 564 264 q 839 313 781 264 q 922 450 897 361 l 922 453 q 933 507 932 474 q 903 606 940 571 q 768 640 865 640 z "},"Õ":{"ha":1179,"x_min":143,"x_max":1363,"o":"m 586 -7 q 392 13 478 -7 q 251 74 307 32 q 169 183 194 117 q 153 343 143 249 q 174 450 157 392 l 174 453 q 272 662 208 575 q 421 803 335 749 q 614 884 507 858 q 844 910 721 910 q 1038 890 953 910 q 1181 829 1124 871 q 1265 722 1239 788 q 1282 563 1292 656 q 1273 510 1279 538 q 1258 453 1267 483 l 1258 450 q 1159 240 1222 326 q 1010 98 1096 153 q 817 18 924 43 q 586 -7 710 -7 m 768 640 q 664 628 707 640 q 591 591 621 615 q 542 532 561 567 q 510 453 522 497 l 510 450 q 499 392 503 431 q 528 297 492 329 q 664 264 564 264 q 839 313 781 264 q 922 450 897 361 l 922 453 q 933 507 932 474 q 903 606 940 571 q 768 640 865 640 m 799 976 l 786 1100 l 704 976 l 429 976 l 581 1206 l 993 1206 l 1006 1082 l 1088 1206 l 1363 1206 l 1211 976 l 799 976 z "},"Ö":{"ha":1179,"x_min":143,"x_max":1292,"o":"m 558 976 l 622 1206 l 897 1206 l 833 976 l 558 976 m 896 976 l 960 1206 l 1235 1206 l 1171 976 l 896 976 m 586 -7 q 392 13 478 -7 q 251 74 307 32 q 169 183 194 117 q 153 343 143 249 q 174 450 157 392 l 174 453 q 272 662 208 575 q 421 803 335 749 q 614 884 507 858 q 844 910 721 910 q 1038 890 953 910 q 1181 829 1124 871 q 1265 722 1239 788 q 1282 563 1292 656 q 1273 510 1279 538 q 1258 453 1267 483 l 1258 450 q 1159 240 1222 326 q 1010 98 1096 153 q 817 18 924 43 q 586 -7 710 -7 m 768 640 q 664 628 707 640 q 591 591 621 615 q 542 532 561 567 q 510 453 522 497 l 510 450 q 499 392 503 431 q 528 297 492 329 q 664 264 564 264 q 839 313 781 264 q 922 450 897 361 l 922 453 q 933 507 932 474 q 903 606 940 571 q 768 640 865 640 z "},"×":{"ha":618,"x_min":122,"x_max":751,"o":"m 122 344 l 264 456 l 186 565 l 408 738 l 488 628 l 628 738 l 751 565 l 610 456 l 690 344 l 469 171 l 389 282 l 247 171 l 122 344 z "},"Ø":{"ha":1176,"x_min":143,"x_max":1289,"o":"m 585 -7 q 390 13 475 -7 q 249 74 306 32 q 168 183 193 117 q 153 343 143 249 q 174 450 157 392 l 174 453 q 271 662 208 575 q 419 803 333 749 q 613 884 506 858 q 843 910 719 910 q 1037 890 951 910 q 1179 829 1122 871 q 1263 722 1236 788 q 1279 564 1289 657 q 1270 510 1276 538 q 1256 453 1264 483 l 1256 450 q 1156 240 1219 326 q 1007 98 1093 153 q 814 18 921 43 q 585 -7 707 -7 m 919 453 q 932 508 931 489 q 928 567 936 539 l 740 271 q 859 332 818 286 q 919 450 900 378 l 919 453 m 510 450 q 502 419 504 435 q 499 390 500 404 q 500 342 496 364 l 689 633 q 570 572 608 618 q 510 453 532 525 l 510 450 z "},"Ù":{"ha":1075,"x_min":113,"x_max":1282,"o":"m 693 976 l 669 1206 l 944 1206 l 968 976 l 693 976 m 493 403 q 485 354 488 378 q 496 295 481 318 q 563 272 511 272 l 669 272 q 726 283 703 272 q 766 311 750 293 q 792 353 782 329 q 808 403 801 376 l 951 906 l 1282 906 l 1099 257 q 1049 167 1086 213 q 963 84 1011 121 q 863 24 915 47 q 771 0 811 0 l 306 0 q 233 20 268 0 q 170 73 197 40 q 128 147 143 106 q 117 229 113 188 q 119 243 118 236 q 122 257 121 250 l 306 906 l 636 906 l 493 403 z "},"Ú":{"ha":1075,"x_min":113,"x_max":1282,"o":"m 1083 1206 l 932 976 l 657 976 l 808 1206 l 1083 1206 m 493 403 q 485 354 488 378 q 496 295 481 318 q 563 272 511 272 l 669 272 q 726 283 703 272 q 766 311 750 293 q 792 353 782 329 q 808 403 801 376 l 951 906 l 1282 906 l 1099 257 q 1049 167 1086 213 q 963 84 1011 121 q 863 24 915 47 q 771 0 811 0 l 306 0 q 233 20 268 0 q 170 73 197 40 q 128 147 143 106 q 117 229 113 188 q 119 243 118 236 q 122 257 121 250 l 306 906 l 636 906 l 493 403 z "},"Û":{"ha":1075,"x_min":113,"x_max":1282,"o":"m 860 976 l 847 1100 l 765 976 l 490 976 l 642 1206 l 1111 1206 l 1135 976 l 860 976 m 493 403 q 485 354 488 378 q 496 295 481 318 q 563 272 511 272 l 669 272 q 726 283 703 272 q 766 311 750 293 q 792 353 782 329 q 808 403 801 376 l 951 906 l 1282 906 l 1099 257 q 1049 167 1086 213 q 963 84 1011 121 q 863 24 915 47 q 771 0 811 0 l 306 0 q 233 20 268 0 q 170 73 197 40 q 128 147 143 106 q 117 229 113 188 q 119 243 118 236 q 122 257 121 250 l 306 906 l 636 906 l 493 403 z "},"Ü":{"ha":1075,"x_min":113,"x_max":1282,"o":"m 506 976 l 569 1206 l 844 1206 l 781 976 l 506 976 m 843 976 l 907 1206 l 1182 1206 l 1118 976 l 843 976 m 493 403 q 485 354 488 378 q 496 295 481 318 q 563 272 511 272 l 669 272 q 726 283 703 272 q 766 311 750 293 q 792 353 782 329 q 808 403 801 376 l 951 906 l 1282 906 l 1099 257 q 1049 167 1086 213 q 963 84 1011 121 q 863 24 915 47 q 771 0 811 0 l 306 0 q 233 20 268 0 q 170 73 197 40 q 128 147 143 106 q 117 229 113 188 q 119 243 118 236 q 122 257 121 250 l 306 906 l 636 906 l 493 403 z "},"Ý":{"ha":1076,"x_min":206,"x_max":1281,"o":"m 932 976 l 1083 1206 l 808 1206 l 657 976 l 932 976 m 701 0 l 772 256 q 1051 392 936 289 q 1218 685 1165 494 l 1281 906 l 949 906 l 886 683 q 818 563 864 604 q 682 511 772 521 q 584 547 611 518 q 564 628 557 575 q 567 656 565 642 q 575 683 569 669 l 638 906 l 306 906 l 243 685 q 228 624 235 653 q 219 572 222 596 q 263 361 206 438 q 443 256 321 285 l 372 0 l 701 0 z "},"Þ":{"ha":1076,"x_min":50,"x_max":1182,"o":"m 50 0 l 306 906 l 635 906 l 601 790 l 974 790 q 1060 769 1021 790 q 1127 714 1100 749 q 1168 636 1154 679 q 1178 549 1182 593 q 1175 532 1176 540 q 1171 515 1174 524 l 1140 406 q 1088 310 1126 360 q 1000 221 1050 261 q 894 155 950 181 q 788 129 838 129 l 415 129 l 379 0 l 50 0 m 714 397 q 786 413 765 397 q 818 457 807 428 q 819 461 818 457 q 821 474 819 465 q 809 506 824 494 q 749 518 794 518 l 525 518 l 490 397 l 714 397 z "},"ß":{"ha":1082,"x_min":22,"x_max":1222,"o":"m 1207 614 q 1162 528 1194 569 q 1094 461 1129 486 q 1119 400 1110 435 q 1124 326 1128 365 q 1121 309 1122 318 q 1117 292 1119 300 l 1113 272 q 1061 176 1099 224 q 974 88 1024 128 q 867 24 924 49 q 760 0 811 0 l 449 0 l 526 272 l 708 272 q 762 280 747 272 q 782 303 776 288 q 783 305 782 303 q 785 313 783 307 q 773 331 786 326 q 724 335 760 335 l 542 335 l 608 571 l 790 571 q 846 578 831 571 q 865 600 861 585 l 868 608 q 856 628 871 624 q 808 633 840 633 l 629 633 q 576 626 593 633 q 553 600 560 619 q 551 592 551 599 q 553 589 551 589 l 361 -89 l 22 -89 l 225 633 q 276 729 239 681 q 364 817 314 778 q 470 881 414 856 q 578 906 526 906 l 1015 906 q 1102 885 1063 906 q 1169 831 1142 864 q 1209 754 1196 797 q 1218 667 1222 711 q 1213 633 1218 646 l 1207 614 z "},"à":{"ha":1139,"x_min":22,"x_max":1117,"o":"m 725 976 l 701 1206 l 976 1206 l 1000 976 l 725 976 m 785 139 l 449 139 l 361 0 l 22 0 l 561 906 l 1089 906 l 1117 0 l 792 0 l 785 139 m 589 381 l 779 381 l 764 667 l 589 381 z "},"á":{"ha":1139,"x_min":22,"x_max":1117,"o":"m 1114 1206 l 963 976 l 688 976 l 839 1206 l 1114 1206 m 785 139 l 449 139 l 361 0 l 22 0 l 561 906 l 1089 906 l 1117 0 l 792 0 l 785 139 m 589 381 l 779 381 l 764 667 l 589 381 z "},"â":{"ha":1139,"x_min":22,"x_max":1167,"o":"m 892 976 l 879 1100 l 797 976 l 522 976 l 674 1206 l 1143 1206 l 1167 976 l 892 976 m 785 139 l 449 139 l 361 0 l 22 0 l 561 906 l 1089 906 l 1117 0 l 792 0 l 785 139 m 589 381 l 779 381 l 764 667 l 589 381 z "},"ã":{"ha":1139,"x_min":22,"x_max":1343,"o":"m 779 976 l 767 1100 l 685 976 l 410 976 l 561 1206 l 974 1206 l 986 1082 l 1068 1206 l 1343 1206 l 1192 976 l 779 976 m 785 139 l 449 139 l 361 0 l 22 0 l 561 906 l 1089 906 l 1117 0 l 792 0 l 785 139 m 589 381 l 779 381 l 764 667 l 589 381 z "},"ä":{"ha":1139,"x_min":22,"x_max":1214,"o":"m 538 976 l 601 1206 l 876 1206 l 813 976 l 538 976 m 875 976 l 939 1206 l 1214 1206 l 1150 976 l 875 976 m 785 139 l 449 139 l 361 0 l 22 0 l 561 906 l 1089 906 l 1117 0 l 792 0 l 785 139 m 589 381 l 779 381 l 764 667 l 589 381 z "},"å":{"ha":1139,"x_min":22,"x_max":1117,"o":"m 707 976 l 771 1206 l 1046 1206 l 982 976 l 707 976 m 785 139 l 449 139 l 361 0 l 22 0 l 561 906 l 1089 906 l 1117 0 l 792 0 l 785 139 m 589 381 l 779 381 l 764 667 l 589 381 z "},"æ":{"ha":1894,"x_min":22,"x_max":2100,"o":"m 785 139 l 449 139 l 361 0 l 22 0 l 561 906 l 1089 906 l 1106 354 l 1261 906 l 2100 906 l 2022 633 l 1513 633 l 1496 572 l 1968 572 l 1900 333 l 1428 333 l 1413 272 l 1922 272 l 1844 0 l 792 0 l 785 139 m 589 381 l 779 381 l 764 667 l 589 381 z "},"ç":{"ha":935,"x_min":143,"x_max":1140,"o":"m 593 -236 l 268 -236 l 322 -46 l 443 -46 l 457 6 q 298 47 365 17 q 193 132 231 78 q 149 265 156 186 q 174 450 143 343 l 175 454 q 269 664 208 578 q 415 803 331 750 q 606 881 500 857 q 833 906 711 906 l 1140 906 l 1064 635 l 782 635 q 601 589 664 635 q 513 454 538 543 l 511 450 q 503 410 506 429 q 657 272 490 285 l 963 272 l 885 0 l 660 0 l 593 -236 z "},"è":{"ha":939,"x_min":50,"x_max":1144,"o":"m 625 976 l 601 1206 l 876 1206 l 900 976 l 625 976 m 944 333 l 472 333 l 457 272 l 967 272 l 889 0 l 50 0 l 306 906 l 1144 906 l 1067 633 l 557 633 l 540 572 l 1013 572 l 944 333 z "},"é":{"ha":939,"x_min":50,"x_max":1144,"o":"m 944 333 l 472 333 l 457 272 l 967 272 l 889 0 l 50 0 l 306 906 l 1144 906 l 1067 633 l 557 633 l 540 572 l 1013 572 l 944 333 m 1015 1206 l 864 976 l 589 976 l 740 1206 l 1015 1206 z "},"ê":{"ha":939,"x_min":50,"x_max":1144,"o":"m 792 976 l 779 1100 l 697 976 l 422 976 l 574 1206 l 1043 1206 l 1067 976 l 792 976 m 944 333 l 472 333 l 457 272 l 967 272 l 889 0 l 50 0 l 306 906 l 1144 906 l 1067 633 l 557 633 l 540 572 l 1013 572 l 944 333 z "},"ë":{"ha":939,"x_min":50,"x_max":1144,"o":"m 438 976 l 501 1206 l 776 1206 l 713 976 l 438 976 m 775 976 l 839 1206 l 1114 1206 l 1050 976 l 775 976 m 944 333 l 472 333 l 457 272 l 967 272 l 889 0 l 50 0 l 306 906 l 1144 906 l 1067 633 l 557 633 l 540 572 l 1013 572 l 944 333 z "},"ì":{"ha":429,"x_min":50,"x_max":671,"o":"m 396 976 l 372 1206 l 647 1206 l 671 976 l 396 976 m 635 906 l 379 0 l 50 0 l 306 906 l 635 906 z "},"í":{"ha":429,"x_min":50,"x_max":735,"o":"m 735 1206 l 583 976 l 308 976 l 460 1206 l 735 1206 m 635 906 l 379 0 l 50 0 l 306 906 l 635 906 z "},"î":{"ha":429,"x_min":50,"x_max":813,"o":"m 538 976 l 525 1100 l 443 976 l 168 976 l 319 1206 l 789 1206 l 813 976 l 538 976 m 635 906 l 379 0 l 50 0 l 306 906 l 635 906 z "},"ï":{"ha":429,"x_min":50,"x_max":860,"o":"m 183 976 l 247 1206 l 522 1206 l 458 976 l 183 976 m 521 976 l 585 1206 l 860 1206 l 796 976 l 521 976 m 635 906 l 379 0 l 50 0 l 306 906 l 635 906 z "},"ð":{"ha":1071,"x_min":96,"x_max":1189,"o":"m 649 635 l 229 635 l 306 906 l 588 906 l 624 1036 l 953 1036 l 911 892 q 1119 788 1050 867 q 1175 567 1189 710 q 1167 515 1172 543 q 1151 454 1161 486 l 1150 450 q 1056 241 1117 326 q 910 102 994 156 q 721 24 826 49 q 493 0 615 0 l 250 0 q 185 13 214 0 q 135 48 156 25 q 106 101 115 71 q 100 169 96 132 q 108 208 101 188 l 150 356 q 179 412 157 379 q 234 474 201 444 q 307 524 267 503 q 392 544 347 544 l 824 544 q 774 612 817 589 q 649 635 732 635 m 754 338 l 507 338 q 483 324 499 338 q 463 300 467 310 l 456 272 l 600 272 q 689 294 651 276 q 754 338 726 311 z "},"ñ":{"ha":1076,"x_min":50,"x_max":1311,"o":"m 747 976 l 735 1100 l 653 976 l 378 976 l 529 1206 l 942 1206 l 954 1082 l 1036 1206 l 1311 1206 l 1160 976 l 747 976 m 1026 0 l 707 0 l 496 415 l 379 0 l 50 0 l 306 906 l 626 906 l 835 492 l 953 906 l 1282 906 l 1026 0 z "},"ò":{"ha":1179,"x_min":143,"x_max":1292,"o":"m 746 976 l 722 1206 l 997 1206 l 1021 976 l 746 976 m 586 -7 q 392 13 478 -7 q 251 74 307 32 q 169 183 194 117 q 153 343 143 249 q 174 450 157 392 l 174 453 q 272 662 208 575 q 421 803 335 749 q 614 884 507 858 q 844 910 721 910 q 1038 890 953 910 q 1181 829 1124 871 q 1265 722 1239 788 q 1282 563 1292 656 q 1273 510 1279 538 q 1258 453 1267 483 l 1258 450 q 1159 240 1222 326 q 1010 98 1096 153 q 817 18 924 43 q 586 -7 710 -7 m 768 640 q 664 628 707 640 q 591 591 621 615 q 542 532 561 567 q 510 453 522 497 l 510 450 q 499 392 503 431 q 528 297 492 329 q 664 264 564 264 q 839 313 781 264 q 922 450 897 361 l 922 453 q 933 507 932 474 q 903 606 940 571 q 768 640 865 640 z "},"ó":{"ha":1179,"x_min":143,"x_max":1292,"o":"m 1135 1206 l 983 976 l 708 976 l 860 1206 l 1135 1206 m 586 -7 q 392 13 478 -7 q 251 74 307 32 q 169 183 194 117 q 153 343 143 249 q 174 450 157 392 l 174 453 q 272 662 208 575 q 421 803 335 749 q 614 884 507 858 q 844 910 721 910 q 1038 890 953 910 q 1181 829 1124 871 q 1265 722 1239 788 q 1282 563 1292 656 q 1273 510 1279 538 q 1258 453 1267 483 l 1258 450 q 1159 240 1222 326 q 1010 98 1096 153 q 817 18 924 43 q 586 -7 710 -7 m 768 640 q 664 628 707 640 q 591 591 621 615 q 542 532 561 567 q 510 453 522 497 l 510 450 q 499 392 503 431 q 528 297 492 329 q 664 264 564 264 q 839 313 781 264 q 922 450 897 361 l 922 453 q 933 507 932 474 q 903 606 940 571 q 768 640 865 640 z "},"ô":{"ha":1179,"x_min":143,"x_max":1292,"o":"m 911 976 l 899 1100 l 817 976 l 542 976 l 693 1206 l 1163 1206 l 1186 976 l 911 976 m 586 -7 q 392 13 478 -7 q 251 74 307 32 q 169 183 194 117 q 153 343 143 249 q 174 450 157 392 l 174 453 q 272 662 208 575 q 421 803 335 749 q 614 884 507 858 q 844 910 721 910 q 1038 890 953 910 q 1181 829 1124 871 q 1265 722 1239 788 q 1282 563 1292 656 q 1273 510 1279 538 q 1258 453 1267 483 l 1258 450 q 1159 240 1222 326 q 1010 98 1096 153 q 817 18 924 43 q 586 -7 710 -7 m 768 640 q 664 628 707 640 q 591 591 621 615 q 542 532 561 567 q 510 453 522 497 l 510 450 q 499 392 503 431 q 528 297 492 329 q 664 264 564 264 q 839 313 781 264 q 922 450 897 361 l 922 453 q 933 507 932 474 q 903 606 940 571 q 768 640 865 640 z "},"õ":{"ha":1179,"x_min":143,"x_max":1363,"o":"m 586 -7 q 392 13 478 -7 q 251 74 307 32 q 169 183 194 117 q 153 343 143 249 q 174 450 157 392 l 174 453 q 272 662 208 575 q 421 803 335 749 q 614 884 507 858 q 844 910 721 910 q 1038 890 953 910 q 1181 829 1124 871 q 1265 722 1239 788 q 1282 563 1292 656 q 1273 510 1279 538 q 1258 453 1267 483 l 1258 450 q 1159 240 1222 326 q 1010 98 1096 153 q 817 18 924 43 q 586 -7 710 -7 m 768 640 q 664 628 707 640 q 591 591 621 615 q 542 532 561 567 q 510 453 522 497 l 510 450 q 499 392 503 431 q 528 297 492 329 q 664 264 564 264 q 839 313 781 264 q 922 450 897 361 l 922 453 q 933 507 932 474 q 903 606 940 571 q 768 640 865 640 m 799 976 l 786 1100 l 704 976 l 429 976 l 581 1206 l 993 1206 l 1006 1082 l 1088 1206 l 1363 1206 l 1211 976 l 799 976 z "},"ö":{"ha":1179,"x_min":143,"x_max":1292,"o":"m 558 976 l 622 1206 l 897 1206 l 833 976 l 558 976 m 896 976 l 960 1206 l 1235 1206 l 1171 976 l 896 976 m 586 -7 q 392 13 478 -7 q 251 74 307 32 q 169 183 194 117 q 153 343 143 249 q 174 450 157 392 l 174 453 q 272 662 208 575 q 421 803 335 749 q 614 884 507 858 q 844 910 721 910 q 1038 890 953 910 q 1181 829 1124 871 q 1265 722 1239 788 q 1282 563 1292 656 q 1273 510 1279 538 q 1258 453 1267 483 l 1258 450 q 1159 240 1222 326 q 1010 98 1096 153 q 817 18 924 43 q 586 -7 710 -7 m 768 640 q 664 628 707 640 q 591 591 621 615 q 542 532 561 567 q 510 453 522 497 l 510 450 q 499 392 503 431 q 528 297 492 329 q 664 264 564 264 q 839 313 781 264 q 922 450 897 361 l 922 453 q 933 507 932 474 q 903 606 940 571 q 768 640 865 640 z "},"÷":{"ha":867,"x_min":143,"x_max":979,"o":"m 476 642 l 542 871 l 817 871 l 751 642 l 476 642 m 910 335 l 143 335 l 213 576 l 979 576 l 910 335 m 307 42 l 371 271 l 646 271 l 582 42 l 307 42 z "},"ø":{"ha":1176,"x_min":143,"x_max":1289,"o":"m 585 -7 q 390 13 475 -7 q 249 74 306 32 q 168 183 193 117 q 153 343 143 249 q 174 450 157 392 l 174 453 q 271 662 208 575 q 419 803 333 749 q 613 884 506 858 q 843 910 719 910 q 1037 890 951 910 q 1179 829 1122 871 q 1263 722 1236 788 q 1279 564 1289 657 q 1270 510 1276 538 q 1256 453 1264 483 l 1256 450 q 1156 240 1219 326 q 1007 98 1093 153 q 814 18 921 43 q 585 -7 707 -7 m 919 453 q 932 508 931 489 q 928 567 936 539 l 740 271 q 859 332 818 286 q 919 450 900 378 l 919 453 m 510 450 q 502 419 504 435 q 499 390 500 404 q 500 342 496 364 l 689 633 q 570 572 608 618 q 510 453 532 525 l 510 450 z "},"ù":{"ha":1075,"x_min":144,"x_max":1281,"o":"m 693 976 l 669 1206 l 944 1206 l 968 976 l 693 976 m 818 444 l 949 906 l 1281 906 l 1151 446 q 1061 244 1118 328 q 926 108 1004 161 q 751 28 849 54 q 538 -3 653 1 q 364 22 439 1 q 239 82 289 42 q 167 184 189 122 q 153 332 144 246 q 161 386 156 358 q 176 446 167 414 l 306 906 l 638 906 l 507 444 q 499 417 501 431 q 496 393 497 404 q 517 309 489 339 q 615 272 544 279 q 751 324 706 282 q 818 444 796 365 z "},"ú":{"ha":1075,"x_min":144,"x_max":1281,"o":"m 638 906 l 507 444 q 499 417 501 431 q 496 393 497 404 q 517 309 489 339 q 615 272 544 279 q 751 324 706 282 q 818 444 796 365 l 949 906 l 1281 906 l 1151 446 q 1061 244 1118 328 q 926 108 1004 161 q 751 28 849 54 q 538 -3 653 1 q 364 22 439 1 q 239 82 289 42 q 167 184 189 122 q 153 332 144 246 q 161 386 156 358 q 176 446 167 414 l 306 906 l 638 906 m 1083 1206 l 932 976 l 657 976 l 808 1206 l 1083 1206 z "},"û":{"ha":1075,"x_min":144,"x_max":1281,"o":"m 860 976 l 847 1100 l 765 976 l 490 976 l 642 1206 l 1111 1206 l 1135 976 l 860 976 m 638 906 l 507 444 q 499 417 501 431 q 496 393 497 404 q 517 309 489 339 q 615 272 544 279 q 751 324 706 282 q 818 444 796 365 l 949 906 l 1281 906 l 1151 446 q 1061 244 1118 328 q 926 108 1004 161 q 751 28 849 54 q 538 -3 653 1 q 364 22 439 1 q 239 82 289 42 q 167 184 189 122 q 153 332 144 246 q 161 386 156 358 q 176 446 167 414 l 306 906 l 638 906 z "},"ü":{"ha":1075,"x_min":144,"x_max":1281,"o":"m 506 976 l 569 1206 l 844 1206 l 781 976 l 506 976 m 843 976 l 907 1206 l 1182 1206 l 1118 976 l 843 976 m 818 444 l 949 906 l 1281 906 l 1151 446 q 1061 244 1118 328 q 926 108 1004 161 q 751 28 849 54 q 538 -3 653 1 q 364 22 439 1 q 239 82 289 42 q 167 184 189 122 q 153 332 144 246 q 161 386 156 358 q 176 446 167 414 l 306 906 l 638 906 l 507 444 q 499 417 501 431 q 496 393 497 404 q 517 309 489 339 q 615 272 544 279 q 751 324 706 282 q 818 444 796 365 z "},"ý":{"ha":1076,"x_min":181,"x_max":1282,"o":"m 561 644 q 556 621 558 633 q 551 594 553 608 q 562 536 547 558 q 628 514 576 514 l 738 514 q 793 524 769 514 q 833 553 817 535 q 861 594 850 571 q 879 644 872 618 l 953 906 l 1282 906 l 1167 499 q 1117 408 1154 453 q 1031 326 1079 363 q 931 267 982 290 q 839 244 879 244 l 771 244 l 703 0 l 374 0 l 442 244 l 374 244 q 301 264 338 244 q 238 316 265 283 q 196 389 211 349 q 185 471 181 429 q 190 499 185 488 l 306 906 l 635 906 l 561 644 m 1083 1206 l 932 976 l 657 976 l 808 1206 l 1083 1206 z "},"þ":{"ha":1076,"x_min":50,"x_max":1182,"o":"m 50 0 l 306 906 l 635 906 l 601 790 l 974 790 q 1060 769 1021 790 q 1127 714 1100 749 q 1168 636 1154 679 q 1178 549 1182 593 q 1175 532 1176 540 q 1171 515 1174 524 l 1140 406 q 1088 310 1126 360 q 1000 221 1050 261 q 894 155 950 181 q 788 129 838 129 l 415 129 l 379 0 l 50 0 m 714 397 q 786 413 765 397 q 818 457 807 428 q 819 461 818 457 q 821 474 819 465 q 809 506 824 494 q 749 518 794 518 l 525 518 l 490 397 l 714 397 z "},"ÿ":{"ha":1076,"x_min":181,"x_max":1282,"o":"m 561 644 q 556 621 558 633 q 551 594 553 608 q 562 536 547 558 q 628 514 576 514 l 738 514 q 793 524 769 514 q 833 553 817 535 q 861 594 850 571 q 879 644 872 618 l 953 906 l 1282 906 l 1167 499 q 1117 408 1154 453 q 1031 326 1079 363 q 931 267 982 290 q 839 244 879 244 l 771 244 l 703 0 l 374 0 l 442 244 l 374 244 q 301 264 338 244 q 238 316 265 283 q 196 389 211 349 q 185 471 181 429 q 190 499 185 488 l 306 906 l 635 906 l 561 644 m 506 976 l 569 1206 l 844 1206 l 781 976 l 506 976 m 843 976 l 907 1206 l 1182 1206 l 1118 976 l 843 976 z "}}}
